<svg width="24" height="24" viewBox="0 0 24 24" fill="none" xmlns="http://www.w3.org/2000/svg">
<path d="M15.4467 11.7467C15.4149 11.6648 15.3674 11.5901 15.3067 11.5267L11.9733 8.19333C11.9112 8.13117 11.8374 8.08186 11.7562 8.04822C11.675 8.01458 11.5879 7.99727 11.5 7.99727C11.3225 7.99727 11.1522 8.06779 11.0267 8.19333C10.9645 8.25549 10.9152 8.32928 10.8816 8.4105C10.8479 8.49171 10.8306 8.57876 10.8306 8.66666C10.8306 8.8442 10.9011 9.01446 11.0267 9.14L13.2267 11.3333H8.16667C7.98986 11.3333 7.82029 11.4036 7.69526 11.5286C7.57024 11.6536 7.5 11.8232 7.5 12C7.5 12.1768 7.57024 12.3464 7.69526 12.4714C7.82029 12.5964 7.98986 12.6667 8.16667 12.6667H13.2267L11.0267 14.86C10.9642 14.922 10.9146 14.9957 10.8807 15.0769C10.8469 15.1582 10.8295 15.2453 10.8295 15.3333C10.8295 15.4213 10.8469 15.5085 10.8807 15.5897C10.9146 15.671 10.9642 15.7447 11.0267 15.8067C11.0886 15.8691 11.1624 15.9187 11.2436 15.9526C11.3249 15.9864 11.412 16.0039 11.5 16.0039C11.588 16.0039 11.6751 15.9864 11.7564 15.9526C11.8376 15.9187 11.9114 15.8691 11.9733 15.8067L15.3067 12.4733C15.3674 12.4099 15.4149 12.3352 15.4467 12.2533C15.5133 12.091 15.5133 11.909 15.4467 11.7467Z" fill="white"/>
</svg>
