<svg width="17" height="21" viewBox="0 0 17 21" fill="none" xmlns="http://www.w3.org/2000/svg">
<path d="M16.97 6.37005C16.97 6.37005 16.97 6.37005 16.97 6.29005L16.91 6.14005C16.8891 6.10822 16.8657 6.07812 16.84 6.05005C16.8133 6.00772 16.7832 5.96759 16.75 5.93005L16.66 5.86005L16.5 5.78005L9.00002 1.15005C8.84109 1.05072 8.65744 0.998047 8.47002 0.998047C8.2826 0.998047 8.09895 1.05072 7.94002 1.15005L0.500023 5.78005L0.410023 5.86005L0.320023 5.93005C0.286874 5.96759 0.256778 6.00772 0.230023 6.05005C0.204315 6.07812 0.180906 6.10822 0.160023 6.14005L0.100023 6.29005C0.100023 6.29005 0.100023 6.29005 0.100023 6.37005C0.0901942 6.45644 0.0901942 6.54366 0.100023 6.63005V15.3701C0.0996827 15.54 0.142659 15.7072 0.224894 15.8559C0.307129 16.0047 0.42591 16.13 0.570023 16.22L8.07002 20.85C8.11618 20.8786 8.16693 20.8989 8.22002 20.91C8.22002 20.91 8.27002 20.91 8.30002 20.91C8.4692 20.9637 8.65084 20.9637 8.82002 20.91C8.82002 20.91 8.87002 20.91 8.90002 20.91C8.95311 20.8989 9.00386 20.8786 9.05002 20.85L16.5 16.22C16.6441 16.13 16.7629 16.0047 16.8452 15.8559C16.9274 15.7072 16.9704 15.54 16.97 15.3701V6.63005C16.9799 6.54366 16.9799 6.45644 16.97 6.37005ZM7.50002 18.21L2.00002 14.8101V8.43005L7.50002 11.82V18.21ZM8.50002 10.09L2.90002 6.63005L8.50002 3.18005L14.1 6.63005L8.50002 10.09ZM15 14.8101L9.50002 18.21V11.82L15 8.43005V14.8101Z" fill="#BEBEBE"/>
</svg>
