<svg width="88" height="87" viewBox="0 0 88 87" fill="none" xmlns="http://www.w3.org/2000/svg">
<g clip-path="url(#clip0_1_616)">
<path d="M53.09 68.2699C53.09 59.3199 52.93 50.3699 53.11 41.4199C53.27 33.0899 59.8 26.8599 68.39 26.4899C69.19 26.4599 69.97 26.3699 70.75 26.1999C77.64 25.1499 82.61 21.5399 85.58 15.2199C85.83 14.6799 85.83 13.9499 86.56 13.7099C88.31 19.6599 87.3 25.1699 83.66 30.1099C80.01 35.0699 74.97 37.5799 68.8 37.7999C66.01 37.8999 64.45 39.4499 64.45 42.2299C64.45 50.6399 64.52 59.0499 64.43 67.4599C64.35 75.0199 60.95 80.7699 54.29 84.3999C43.16 90.4699 28.82 83.3699 26.86 70.9299C26.65 69.6199 26.57 68.3199 26.57 67.0099C26.57 51.2299 26.55 35.4399 26.58 19.6599C26.58 17.2699 25.95 15.1999 24.25 13.4899C24.01 10.6299 24.21 7.75991 24.15 4.88991C24.14 4.20991 24.18 3.52991 24.13 2.85991C24.07 1.86991 23.77 1.64991 22.81 1.93991C20.98 2.49991 19.47 3.62991 18 4.78991C17.84 4.90991 17.71 5.05991 17.56 5.19991C13.89 8.42991 12.12 12.6199 11.41 17.3499C11.39 17.5099 11.41 17.6699 11.48 17.8099C11.24 34.3499 11.44 50.8899 11.37 67.4299C11.36 70.5599 9.73 72.6999 6.87 73.3199C3.43 74.0599 0.110004 71.4999 0.0300042 67.9799C-0.0199958 65.9499 0.0300042 63.9099 0.0300042 61.8799C0.0300042 47.5699 0.0300042 33.2599 0.0300042 18.9499C0.0200042 9.30991 7.32 1.18991 16.91 0.119913C27.04 -1.01009 36.24 6.16991 37.71 16.3099C37.85 17.2599 37.9 18.2099 37.9 19.1699C37.9 34.6799 37.94 50.1799 37.87 65.6899C37.86 68.5499 38.26 71.1299 40.24 73.2999C40.57 75.9199 40.32 78.5399 40.39 81.1599C40.41 81.9599 40.37 82.7499 40.4 83.5499C40.44 84.7799 40.82 85.0299 42 84.5799C43.89 83.8499 45.46 82.6199 46.98 81.3299C50.13 78.4099 51.93 74.7699 52.77 70.6099C52.92 69.8399 53.26 69.0899 53.09 68.2699Z" fill="white"/>
<path d="M71.24 11.79C69.89 11.4 68.51 11.31 67.1 11.32C59.91 11.34 52.72 11.34 45.52 11.32C42.58 11.32 40.17 9.20004 39.85 6.37005C39.53 3.56005 41.29 1.00005 44.06 0.220045C44.54 0.0900452 45.01 0.0800452 45.48 0.0800452C53.35 0.0800452 61.22 0.0300452 69.1 0.100045C72.77 0.130045 76.16 1.22005 79.13 3.44005C79.02 3.99005 78.56 4.28005 78.21 4.64005C75.9 7.04005 73.41 9.25004 71.24 11.79Z" fill="white"/>
<path d="M71.24 11.7899C71.28 11.3799 71.45 11.0099 71.74 10.7299C74.2 8.28994 76.67 5.86994 79.14 3.43994C81.21 4.70994 82.86 6.40994 84.14 8.45994C81.4 10.8799 78.92 13.5699 76.32 16.1299C76.15 16.2999 76.02 16.4999 75.79 16.5999C74.91 14.3999 73.4 12.7799 71.24 11.7899Z" fill="white"/>
<path d="M17.28 5.1C18.93 3.37 20.89 2.13 23.19 1.46C23.78 1.29 24.46 1.32 24.47 2.19C24.49 5.82 24.47 9.44 24.47 13.07C24.47 13.21 24.33 13.34 24.26 13.48C22.24 11.76 19.96 10.95 17.3 11.52C17.12 9.38 17.05 7.24001 17.3 5.11001L17.28 5.1Z" fill="white"/>
<path d="M47.26 81.42C45.63 83.08 43.73 84.34 41.53 85.1C40.8 85.35 40.09 85.28 40.08 84.32C40.05 80.75 40.08 77.18 40.08 73.61C40.08 73.51 40.18 73.4 40.24 73.3C42.03 74.93 44.21 75.32 46.54 75.25C47.02 75.79 46.86 76.45 46.89 77.07C46.98 78.52 46.65 80.01 47.26 81.42Z" fill="white"/>
<path d="M75.79 16.5999C75.79 16.1499 76.13 15.8999 76.41 15.6199C78.61 13.4199 80.82 11.2199 83.02 9.01993C83.34 8.69993 83.64 8.38993 84.14 8.45993C85.07 9.78993 85.88 11.1799 86.3 12.7599C85.71 13.0099 85.23 13.4199 84.78 13.8799C82.23 16.4299 79.69 18.9899 77.11 21.5099C76.58 22.0299 76.1 22.7699 75.15 22.5799C76.15 20.6699 76.26 18.6699 75.78 16.6099L75.79 16.5999Z" fill="white"/>
<path d="M75.16 22.57C75.85 22.32 76.39 21.86 76.9 21.35C79.64 18.61 82.38 15.88 85.12 13.15C85.44 12.83 85.72 12.32 86.3 12.75C86.43 13.05 86.63 13.33 86.56 13.69C85.45 16.61 83.89 19.25 81.61 21.41C78.8 24.07 75.45 25.68 71.65 26.36C71.34 26.41 71.01 26.46 70.75 26.19C72.65 25.5 74.13 24.31 75.16 22.57Z" fill="white"/>
<path d="M47.26 81.42C46.54 81.35 46.53 80.84 46.53 80.3C46.53 78.61 46.53 76.93 46.53 75.24C48.53 74.81 50.24 73.91 51.52 72.27C52.45 71.08 52.83 69.7 53.09 68.26C53.46 70.17 52.82 71.96 52.24 73.7C51.26 76.68 49.66 79.32 47.25 81.41L47.26 81.42Z" fill="white"/>
<path d="M17.28 5.1001C17.64 7.2401 17.7 9.3801 17.28 11.5101C14.07 12.4401 12.14 14.5301 11.47 17.8001C10.92 16.8201 11.35 15.8201 11.57 14.9101C12.49 11.0901 14.2 7.6901 17.28 5.1001Z" fill="white"/>
</g>
<defs>
<clipPath id="clip0_1_616">
<rect width="87.39" height="86.59" fill="white"/>
</clipPath>
</defs>
</svg>
