<svg width="17" height="16" viewBox="0 0 17 16" fill="none" xmlns="http://www.w3.org/2000/svg">
<path d="M8.49998 12.6666C8.63183 12.6666 8.76073 12.6275 8.87036 12.5543C8.97999 12.481 9.06544 12.3769 9.1159 12.2551C9.16636 12.1333 9.17956 11.9992 9.15384 11.8699C9.12811 11.7406 9.06462 11.6218 8.97138 11.5286C8.87815 11.4353 8.75936 11.3718 8.63004 11.3461C8.50072 11.3204 8.36667 11.3336 8.24486 11.384C8.12304 11.4345 8.01892 11.5199 7.94567 11.6296C7.87241 11.7392 7.83331 11.8681 7.83331 12C7.83331 12.1768 7.90355 12.3463 8.02858 12.4714C8.1536 12.5964 8.32317 12.6666 8.49998 12.6666ZM11.8333 12.6666C11.9652 12.6666 12.0941 12.6275 12.2037 12.5543C12.3133 12.481 12.3988 12.3769 12.4492 12.2551C12.4997 12.1333 12.5129 11.9992 12.4872 11.8699C12.4614 11.7406 12.398 11.6218 12.3047 11.5286C12.2115 11.4353 12.0927 11.3718 11.9634 11.3461C11.8341 11.3204 11.7 11.3336 11.5782 11.384C11.4564 11.4345 11.3523 11.5199 11.279 11.6296C11.2057 11.7392 11.1666 11.8681 11.1666 12C11.1666 12.1768 11.2369 12.3463 11.3619 12.4714C11.4869 12.5964 11.6565 12.6666 11.8333 12.6666ZM11.8333 9.99996C11.9652 9.99996 12.0941 9.96086 12.2037 9.8876C12.3133 9.81435 12.3988 9.71023 12.4492 9.58841C12.4997 9.4666 12.5129 9.33255 12.4872 9.20323C12.4614 9.07391 12.398 8.95512 12.3047 8.86189C12.2115 8.76865 12.0927 8.70516 11.9634 8.67943C11.8341 8.65371 11.7 8.66691 11.5782 8.71737C11.4564 8.76783 11.3523 8.85328 11.279 8.96291C11.2057 9.07254 11.1666 9.20144 11.1666 9.33329C11.1666 9.5101 11.2369 9.67967 11.3619 9.8047C11.4869 9.92972 11.6565 9.99996 11.8333 9.99996ZM8.49998 9.99996C8.63183 9.99996 8.76073 9.96086 8.87036 9.8876C8.97999 9.81435 9.06544 9.71023 9.1159 9.58841C9.16636 9.4666 9.17956 9.33255 9.15384 9.20323C9.12811 9.07391 9.06462 8.95512 8.97138 8.86189C8.87815 8.76865 8.75936 8.70516 8.63004 8.67943C8.50072 8.65371 8.36667 8.66691 8.24486 8.71737C8.12304 8.76783 8.01892 8.85328 7.94567 8.96291C7.87241 9.07254 7.83331 9.20144 7.83331 9.33329C7.83331 9.5101 7.90355 9.67967 8.02858 9.8047C8.1536 9.92972 8.32317 9.99996 8.49998 9.99996ZM13.1666 1.99996H12.5V1.33329C12.5 1.15648 12.4297 0.986912 12.3047 0.861888C12.1797 0.736864 12.0101 0.666626 11.8333 0.666626C11.6565 0.666626 11.4869 0.736864 11.3619 0.861888C11.2369 0.986912 11.1666 1.15648 11.1666 1.33329V1.99996H5.83331V1.33329C5.83331 1.15648 5.76308 0.986912 5.63805 0.861888C5.51303 0.736864 5.34346 0.666626 5.16665 0.666626C4.98984 0.666626 4.82027 0.736864 4.69524 0.861888C4.57022 0.986912 4.49998 1.15648 4.49998 1.33329V1.99996H3.83331C3.30288 1.99996 2.79417 2.21067 2.4191 2.58575C2.04403 2.96082 1.83331 3.46953 1.83331 3.99996V13.3333C1.83331 13.8637 2.04403 14.3724 2.4191 14.7475C2.79417 15.1226 3.30288 15.3333 3.83331 15.3333H13.1666C13.6971 15.3333 14.2058 15.1226 14.5809 14.7475C14.9559 14.3724 15.1666 13.8637 15.1666 13.3333V3.99996C15.1666 3.46953 14.9559 2.96082 14.5809 2.58575C14.2058 2.21067 13.6971 1.99996 13.1666 1.99996ZM13.8333 13.3333C13.8333 13.5101 13.7631 13.6797 13.6381 13.8047C13.513 13.9297 13.3435 14 13.1666 14H3.83331C3.6565 14 3.48693 13.9297 3.36191 13.8047C3.23688 13.6797 3.16665 13.5101 3.16665 13.3333V7.33329H13.8333V13.3333ZM13.8333 5.99996H3.16665V3.99996C3.16665 3.82315 3.23688 3.65358 3.36191 3.52855C3.48693 3.40353 3.6565 3.33329 3.83331 3.33329H4.49998V3.99996C4.49998 4.17677 4.57022 4.34634 4.69524 4.47136C4.82027 4.59639 4.98984 4.66663 5.16665 4.66663C5.34346 4.66663 5.51303 4.59639 5.63805 4.47136C5.76308 4.34634 5.83331 4.17677 5.83331 3.99996V3.33329H11.1666V3.99996C11.1666 4.17677 11.2369 4.34634 11.3619 4.47136C11.4869 4.59639 11.6565 4.66663 11.8333 4.66663C12.0101 4.66663 12.1797 4.59639 12.3047 4.47136C12.4297 4.34634 12.5 4.17677 12.5 3.99996V3.33329H13.1666C13.3435 3.33329 13.513 3.40353 13.6381 3.52855C13.7631 3.65358 13.8333 3.82315 13.8333 3.99996V5.99996ZM5.16665 9.99996C5.2985 9.99996 5.42739 9.96086 5.53703 9.8876C5.64666 9.81435 5.73211 9.71023 5.78257 9.58841C5.83302 9.4666 5.84623 9.33255 5.8205 9.20323C5.79478 9.07391 5.73129 8.95512 5.63805 8.86189C5.54482 8.76865 5.42603 8.70516 5.29671 8.67943C5.16739 8.65371 5.03334 8.66691 4.91152 8.71737C4.78971 8.76783 4.68559 8.85328 4.61233 8.96291C4.53908 9.07254 4.49998 9.20144 4.49998 9.33329C4.49998 9.5101 4.57022 9.67967 4.69524 9.8047C4.82027 9.92972 4.98984 9.99996 5.16665 9.99996ZM5.16665 12.6666C5.2985 12.6666 5.42739 12.6275 5.53703 12.5543C5.64666 12.481 5.73211 12.3769 5.78257 12.2551C5.83302 12.1333 5.84623 11.9992 5.8205 11.8699C5.79478 11.7406 5.73129 11.6218 5.63805 11.5286C5.54482 11.4353 5.42603 11.3718 5.29671 11.3461C5.16739 11.3204 5.03334 11.3336 4.91152 11.384C4.78971 11.4345 4.68559 11.5199 4.61233 11.6296C4.53908 11.7392 4.49998 11.8681 4.49998 12C4.49998 12.1768 4.57022 12.3463 4.69524 12.4714C4.82027 12.5964 4.98984 12.6666 5.16665 12.6666Z" fill="#BEBEBE"/>
</svg>
