<svg width="17" height="16" viewBox="0 0 17 16" fill="none" xmlns="http://www.w3.org/2000/svg">
<path d="M8.50001 12.6667C8.63186 12.6667 8.76076 12.6276 8.87039 12.5543C8.98002 12.481 9.06547 12.3769 9.11593 12.2551C9.16639 12.1333 9.17959 11.9992 9.15387 11.8699C9.12814 11.7406 9.06465 11.6218 8.97141 11.5286C8.87818 11.4353 8.75939 11.3719 8.63007 11.3461C8.50075 11.3204 8.36671 11.3336 8.24489 11.3841C8.12307 11.4345 8.01895 11.52 7.9457 11.6296C7.87244 11.7392 7.83334 11.8681 7.83334 12C7.83334 12.1768 7.90358 12.3464 8.02861 12.4714C8.15363 12.5964 8.3232 12.6667 8.50001 12.6667ZM11.8333 12.6667C11.9652 12.6667 12.0941 12.6276 12.2037 12.5543C12.3134 12.481 12.3988 12.3769 12.4493 12.2551C12.4997 12.1333 12.5129 11.9992 12.4872 11.8699C12.4615 11.7406 12.398 11.6218 12.3047 11.5286C12.2115 11.4353 12.0927 11.3719 11.9634 11.3461C11.8341 11.3204 11.7 11.3336 11.5782 11.3841C11.4564 11.4345 11.3523 11.52 11.279 11.6296C11.2058 11.7392 11.1667 11.8681 11.1667 12C11.1667 12.1768 11.2369 12.3464 11.3619 12.4714C11.487 12.5964 11.6565 12.6667 11.8333 12.6667ZM11.8333 9.99999C11.9652 9.99999 12.0941 9.96089 12.2037 9.88764C12.3134 9.81438 12.3988 9.71026 12.4493 9.58844C12.4997 9.46663 12.5129 9.33258 12.4872 9.20326C12.4615 9.07394 12.398 8.95515 12.3047 8.86192C12.2115 8.76868 12.0927 8.70519 11.9634 8.67947C11.8341 8.65374 11.7 8.66694 11.5782 8.7174C11.4564 8.76786 11.3523 8.85331 11.279 8.96294C11.2058 9.07257 11.1667 9.20147 11.1667 9.33332C11.1667 9.51013 11.2369 9.6797 11.3619 9.80473C11.487 9.92975 11.6565 9.99999 11.8333 9.99999ZM8.50001 9.99999C8.63186 9.99999 8.76076 9.96089 8.87039 9.88764C8.98002 9.81438 9.06547 9.71026 9.11593 9.58844C9.16639 9.46663 9.17959 9.33258 9.15387 9.20326C9.12814 9.07394 9.06465 8.95515 8.97141 8.86192C8.87818 8.76868 8.75939 8.70519 8.63007 8.67947C8.50075 8.65374 8.36671 8.66694 8.24489 8.7174C8.12307 8.76786 8.01895 8.85331 7.9457 8.96294C7.87244 9.07257 7.83334 9.20147 7.83334 9.33332C7.83334 9.51013 7.90358 9.6797 8.02861 9.80473C8.15363 9.92975 8.3232 9.99999 8.50001 9.99999ZM13.1667 1.99999H12.5V1.33332C12.5 1.15651 12.4298 0.986943 12.3047 0.861919C12.1797 0.736894 12.0102 0.666656 11.8333 0.666656C11.6565 0.666656 11.487 0.736894 11.3619 0.861919C11.2369 0.986943 11.1667 1.15651 11.1667 1.33332V1.99999H5.83334V1.33332C5.83334 1.15651 5.76311 0.986943 5.63808 0.861919C5.51306 0.736894 5.34349 0.666656 5.16668 0.666656C4.98987 0.666656 4.8203 0.736894 4.69527 0.861919C4.57025 0.986943 4.50001 1.15651 4.50001 1.33332V1.99999H3.83334C3.30291 1.99999 2.7942 2.2107 2.41913 2.58578C2.04406 2.96085 1.83334 3.46956 1.83334 3.99999V13.3333C1.83334 13.8638 2.04406 14.3725 2.41913 14.7475C2.7942 15.1226 3.30291 15.3333 3.83334 15.3333H13.1667C13.6971 15.3333 14.2058 15.1226 14.5809 14.7475C14.956 14.3725 15.1667 13.8638 15.1667 13.3333V3.99999C15.1667 3.46956 14.956 2.96085 14.5809 2.58578C14.2058 2.2107 13.6971 1.99999 13.1667 1.99999ZM13.8333 13.3333C13.8333 13.5101 13.7631 13.6797 13.6381 13.8047C13.5131 13.9298 13.3435 14 13.1667 14H3.83334C3.65653 14 3.48696 13.9298 3.36194 13.8047C3.23691 13.6797 3.16668 13.5101 3.16668 13.3333V7.33332H13.8333V13.3333ZM13.8333 5.99999H3.16668V3.99999C3.16668 3.82318 3.23691 3.65361 3.36194 3.52859C3.48696 3.40356 3.65653 3.33332 3.83334 3.33332H4.50001V3.99999C4.50001 4.1768 4.57025 4.34637 4.69527 4.47139C4.8203 4.59642 4.98987 4.66666 5.16668 4.66666C5.34349 4.66666 5.51306 4.59642 5.63808 4.47139C5.76311 4.34637 5.83334 4.1768 5.83334 3.99999V3.33332H11.1667V3.99999C11.1667 4.1768 11.2369 4.34637 11.3619 4.47139C11.487 4.59642 11.6565 4.66666 11.8333 4.66666C12.0102 4.66666 12.1797 4.59642 12.3047 4.47139C12.4298 4.34637 12.5 4.1768 12.5 3.99999V3.33332H13.1667C13.3435 3.33332 13.5131 3.40356 13.6381 3.52859C13.7631 3.65361 13.8333 3.82318 13.8333 3.99999V5.99999ZM5.16668 9.99999C5.29853 9.99999 5.42742 9.96089 5.53706 9.88764C5.64669 9.81438 5.73214 9.71026 5.7826 9.58844C5.83306 9.46663 5.84626 9.33258 5.82053 9.20326C5.79481 9.07394 5.73132 8.95515 5.63808 8.86192C5.54485 8.76868 5.42606 8.70519 5.29674 8.67947C5.16742 8.65374 5.03337 8.66694 4.91155 8.7174C4.78974 8.76786 4.68562 8.85331 4.61236 8.96294C4.53911 9.07257 4.50001 9.20147 4.50001 9.33332C4.50001 9.51013 4.57025 9.6797 4.69527 9.80473C4.8203 9.92975 4.98987 9.99999 5.16668 9.99999ZM5.16668 12.6667C5.29853 12.6667 5.42742 12.6276 5.53706 12.5543C5.64669 12.481 5.73214 12.3769 5.7826 12.2551C5.83306 12.1333 5.84626 11.9992 5.82053 11.8699C5.79481 11.7406 5.73132 11.6218 5.63808 11.5286C5.54485 11.4353 5.42606 11.3719 5.29674 11.3461C5.16742 11.3204 5.03337 11.3336 4.91155 11.3841C4.78974 11.4345 4.68562 11.52 4.61236 11.6296C4.53911 11.7392 4.50001 11.8681 4.50001 12C4.50001 12.1768 4.57025 12.3464 4.69527 12.4714C4.8203 12.5964 4.98987 12.6667 5.16668 12.6667Z" fill="#BEBEBE"/>
</svg>
