<svg width="15" height="16" viewBox="0 0 15 16" fill="none" xmlns="http://www.w3.org/2000/svg">
<path d="M7.5 12.6666C7.63186 12.6666 7.76075 12.6275 7.87038 12.5543C7.98002 12.481 8.06546 12.3769 8.11592 12.2551C8.16638 12.1333 8.17958 11.9992 8.15386 11.8699C8.12814 11.7406 8.06464 11.6218 7.97141 11.5286C7.87817 11.4353 7.75938 11.3718 7.63006 11.3461C7.50074 11.3204 7.3667 11.3336 7.24488 11.384C7.12306 11.4345 7.01894 11.5199 6.94569 11.6296C6.87244 11.7392 6.83334 11.8681 6.83334 12C6.83334 12.1768 6.90357 12.3463 7.0286 12.4714C7.15362 12.5964 7.32319 12.6666 7.5 12.6666ZM10.8333 12.6666C10.9652 12.6666 11.0941 12.6275 11.2037 12.5543C11.3133 12.481 11.3988 12.3769 11.4493 12.2551C11.4997 12.1333 11.5129 11.9992 11.4872 11.8699C11.4615 11.7406 11.398 11.6218 11.3047 11.5286C11.2115 11.4353 11.0927 11.3718 10.9634 11.3461C10.8341 11.3204 10.7 11.3336 10.5782 11.384C10.4564 11.4345 10.3523 11.5199 10.279 11.6296C10.2058 11.7392 10.1667 11.8681 10.1667 12C10.1667 12.1768 10.2369 12.3463 10.3619 12.4714C10.487 12.5964 10.6565 12.6666 10.8333 12.6666ZM10.8333 9.99996C10.9652 9.99996 11.0941 9.96086 11.2037 9.8876C11.3133 9.81435 11.3988 9.71023 11.4493 9.58841C11.4997 9.4666 11.5129 9.33255 11.4872 9.20323C11.4615 9.07391 11.398 8.95512 11.3047 8.86189C11.2115 8.76865 11.0927 8.70516 10.9634 8.67943C10.8341 8.65371 10.7 8.66691 10.5782 8.71737C10.4564 8.76783 10.3523 8.85328 10.279 8.96291C10.2058 9.07254 10.1667 9.20144 10.1667 9.33329C10.1667 9.5101 10.2369 9.67967 10.3619 9.8047C10.487 9.92972 10.6565 9.99996 10.8333 9.99996ZM7.5 9.99996C7.63186 9.99996 7.76075 9.96086 7.87038 9.8876C7.98002 9.81435 8.06546 9.71023 8.11592 9.58841C8.16638 9.4666 8.17958 9.33255 8.15386 9.20323C8.12814 9.07391 8.06464 8.95512 7.97141 8.86189C7.87817 8.76865 7.75938 8.70516 7.63006 8.67943C7.50074 8.65371 7.3667 8.66691 7.24488 8.71737C7.12306 8.76783 7.01894 8.85328 6.94569 8.96291C6.87244 9.07254 6.83334 9.20144 6.83334 9.33329C6.83334 9.5101 6.90357 9.67967 7.0286 9.8047C7.15362 9.92972 7.32319 9.99996 7.5 9.99996ZM12.1667 1.99996H11.5V1.33329C11.5 1.15648 11.4298 0.986912 11.3047 0.861888C11.1797 0.736864 11.0101 0.666626 10.8333 0.666626C10.6565 0.666626 10.487 0.736864 10.3619 0.861888C10.2369 0.986912 10.1667 1.15648 10.1667 1.33329V1.99996H4.83334V1.33329C4.83334 1.15648 4.7631 0.986912 4.63807 0.861888C4.51305 0.736864 4.34348 0.666626 4.16667 0.666626C3.98986 0.666626 3.82029 0.736864 3.69526 0.861888C3.57024 0.986912 3.5 1.15648 3.5 1.33329V1.99996H2.83334C2.3029 1.99996 1.7942 2.21067 1.41912 2.58575C1.04405 2.96082 0.833336 3.46953 0.833336 3.99996V13.3333C0.833336 13.8637 1.04405 14.3724 1.41912 14.7475C1.7942 15.1226 2.3029 15.3333 2.83334 15.3333H12.1667C12.6971 15.3333 13.2058 15.1226 13.5809 14.7475C13.956 14.3724 14.1667 13.8637 14.1667 13.3333V3.99996C14.1667 3.46953 13.956 2.96082 13.5809 2.58575C13.2058 2.21067 12.6971 1.99996 12.1667 1.99996ZM12.8333 13.3333C12.8333 13.5101 12.7631 13.6797 12.6381 13.8047C12.5131 13.9297 12.3435 14 12.1667 14H2.83334C2.65652 14 2.48696 13.9297 2.36193 13.8047C2.23691 13.6797 2.16667 13.5101 2.16667 13.3333V7.33329H12.8333V13.3333ZM12.8333 5.99996H2.16667V3.99996C2.16667 3.82315 2.23691 3.65358 2.36193 3.52855C2.48696 3.40353 2.65652 3.33329 2.83334 3.33329H3.5V3.99996C3.5 4.17677 3.57024 4.34634 3.69526 4.47136C3.82029 4.59639 3.98986 4.66663 4.16667 4.66663C4.34348 4.66663 4.51305 4.59639 4.63807 4.47136C4.7631 4.34634 4.83334 4.17677 4.83334 3.99996V3.33329H10.1667V3.99996C10.1667 4.17677 10.2369 4.34634 10.3619 4.47136C10.487 4.59639 10.6565 4.66663 10.8333 4.66663C11.0101 4.66663 11.1797 4.59639 11.3047 4.47136C11.4298 4.34634 11.5 4.17677 11.5 3.99996V3.33329H12.1667C12.3435 3.33329 12.5131 3.40353 12.6381 3.52855C12.7631 3.65358 12.8333 3.82315 12.8333 3.99996V5.99996ZM4.16667 9.99996C4.29852 9.99996 4.42742 9.96086 4.53705 9.8876C4.64668 9.81435 4.73213 9.71023 4.78259 9.58841C4.83305 9.4666 4.84625 9.33255 4.82053 9.20323C4.7948 9.07391 4.73131 8.95512 4.63807 8.86189C4.54484 8.76865 4.42605 8.70516 4.29673 8.67943C4.16741 8.65371 4.03336 8.66691 3.91155 8.71737C3.78973 8.76783 3.68561 8.85328 3.61236 8.96291C3.5391 9.07254 3.5 9.20144 3.5 9.33329C3.5 9.5101 3.57024 9.67967 3.69526 9.8047C3.82029 9.92972 3.98986 9.99996 4.16667 9.99996ZM4.16667 12.6666C4.29852 12.6666 4.42742 12.6275 4.53705 12.5543C4.64668 12.481 4.73213 12.3769 4.78259 12.2551C4.83305 12.1333 4.84625 11.9992 4.82053 11.8699C4.7948 11.7406 4.73131 11.6218 4.63807 11.5286C4.54484 11.4353 4.42605 11.3718 4.29673 11.3461C4.16741 11.3204 4.03336 11.3336 3.91155 11.384C3.78973 11.4345 3.68561 11.5199 3.61236 11.6296C3.5391 11.7392 3.5 11.8681 3.5 12C3.5 12.1768 3.57024 12.3463 3.69526 12.4714C3.82029 12.5964 3.98986 12.6666 4.16667 12.6666Z" fill="#131418"/>
</svg>
