<svg width="15" height="10" viewBox="0 0 15 10" fill="none" xmlns="http://www.w3.org/2000/svg">
<path d="M12.1667 3.33334H11.9533L11.12 1.25334C10.9712 0.883512 10.7152 0.566598 10.385 0.343278C10.0548 0.119957 9.66533 0.000419136 9.26668 8.19851e-06H5.26668C4.80354 -0.00131736 4.35429 0.158136 3.99562 0.45115C3.63695 0.744165 3.39109 1.15258 3.30001 1.60667L2.95334 3.33334H2.83334C2.30291 3.33334 1.7942 3.54406 1.41913 3.91913C1.04406 4.2942 0.833344 4.80291 0.833344 5.33334V7.33334C0.833344 7.51015 0.903581 7.67972 1.02861 7.80475C1.15363 7.92977 1.3232 8.00001 1.50001 8.00001H2.16668C2.16668 8.53044 2.37739 9.03915 2.75246 9.41422C3.12754 9.7893 3.63624 10 4.16668 10C4.69711 10 5.20582 9.7893 5.58089 9.41422C5.95596 9.03915 6.16668 8.53044 6.16668 8.00001H8.83334C8.83334 8.53044 9.04406 9.03915 9.41913 9.41422C9.7942 9.7893 10.3029 10 10.8333 10C11.3638 10 11.8725 9.7893 12.2476 9.41422C12.6226 9.03915 12.8333 8.53044 12.8333 8.00001H13.5C13.6768 8.00001 13.8464 7.92977 13.9714 7.80475C14.0964 7.67972 14.1667 7.51015 14.1667 7.33334V5.33334C14.1667 4.80291 13.956 4.2942 13.5809 3.91913C13.2058 3.54406 12.6971 3.33334 12.1667 3.33334ZM8.16668 1.33334H9.26668C9.39906 1.33454 9.52808 1.37512 9.63732 1.44992C9.74655 1.52472 9.83103 1.63035 9.88001 1.75334L10.5133 3.33334H8.16668V1.33334ZM4.60668 1.86668C4.63784 1.71382 4.72163 1.57674 4.84344 1.47929C4.96525 1.38184 5.11738 1.3302 5.27334 1.33334H6.83334V3.33334H4.31334L4.60668 1.86668ZM4.16668 8.66668C4.03482 8.66668 3.90593 8.62758 3.7963 8.55432C3.68666 8.48107 3.60122 8.37695 3.55076 8.25513C3.5003 8.13331 3.4871 7.99927 3.51282 7.86995C3.53854 7.74063 3.60204 7.62184 3.69527 7.5286C3.78851 7.43537 3.9073 7.37188 4.03662 7.34615C4.16594 7.32043 4.29998 7.33363 4.4218 7.38409C4.54362 7.43455 4.64774 7.52 4.72099 7.62963C4.79424 7.73926 4.83334 7.86815 4.83334 8.00001C4.83334 8.17682 4.76311 8.34639 4.63808 8.47141C4.51306 8.59644 4.34349 8.66668 4.16668 8.66668ZM10.8333 8.66668C10.7015 8.66668 10.5726 8.62758 10.463 8.55432C10.3533 8.48107 10.2679 8.37695 10.2174 8.25513C10.167 8.13331 10.1538 7.99927 10.1795 7.86995C10.2052 7.74063 10.2687 7.62184 10.3619 7.5286C10.4552 7.43537 10.574 7.37188 10.7033 7.34615C10.8326 7.32043 10.9666 7.33363 11.0885 7.38409C11.2103 7.43455 11.3144 7.52 11.3877 7.62963C11.4609 7.73926 11.5 7.86815 11.5 8.00001C11.5 8.17682 11.4298 8.34639 11.3047 8.47141C11.1797 8.59644 11.0102 8.66668 10.8333 8.66668ZM12.8333 6.66668H12.3133C12.1259 6.46044 11.8974 6.29566 11.6425 6.1829C11.3877 6.07014 11.112 6.01189 10.8333 6.01189C10.5546 6.01189 10.279 6.07014 10.0242 6.1829C9.76929 6.29566 9.5408 6.46044 9.35334 6.66668H5.64668C5.45922 6.46044 5.23073 6.29566 4.97587 6.1829C4.721 6.07014 4.44538 6.01189 4.16668 6.01189C3.88798 6.01189 3.61236 6.07014 3.35749 6.1829C3.10262 6.29566 2.87413 6.46044 2.68668 6.66668H2.16668V5.33334C2.16668 5.15653 2.23691 4.98696 2.36194 4.86194C2.48696 4.73691 2.65653 4.66668 2.83334 4.66668H12.1667C12.3435 4.66668 12.5131 4.73691 12.6381 4.86194C12.7631 4.98696 12.8333 5.15653 12.8333 5.33334V6.66668Z" fill="#7C7C7C"/>
</svg>
