<svg width="15" height="11" viewBox="0 0 15 11" fill="none" xmlns="http://www.w3.org/2000/svg">
<path d="M4.16683 6.99967H6.16683C6.34364 6.99967 6.51321 6.92944 6.63823 6.80441C6.76326 6.67939 6.8335 6.50982 6.8335 6.33301C6.8335 6.1562 6.76326 5.98663 6.63823 5.8616C6.51321 5.73658 6.34364 5.66634 6.16683 5.66634H4.16683C3.99002 5.66634 3.82045 5.73658 3.69543 5.8616C3.5704 5.98663 3.50016 6.1562 3.50016 6.33301C3.50016 6.50982 3.5704 6.67939 3.69543 6.80441C3.82045 6.92944 3.99002 6.99967 4.16683 6.99967ZM12.1668 0.333008H2.8335C2.30306 0.333008 1.79436 0.543722 1.41928 0.918794C1.04421 1.29387 0.833496 1.80257 0.833496 2.33301V8.33301C0.833496 8.86344 1.04421 9.37215 1.41928 9.74722C1.79436 10.1223 2.30306 10.333 2.8335 10.333H12.1668C12.6973 10.333 13.206 10.1223 13.581 9.74722C13.9561 9.37215 14.1668 8.86344 14.1668 8.33301V2.33301C14.1668 1.80257 13.9561 1.29387 13.581 0.918794C13.206 0.543722 12.6973 0.333008 12.1668 0.333008ZM12.8335 8.33301C12.8335 8.50982 12.7633 8.67939 12.6382 8.80441C12.5132 8.92944 12.3436 8.99967 12.1668 8.99967H2.8335C2.65669 8.99967 2.48712 8.92944 2.36209 8.80441C2.23707 8.67939 2.16683 8.50982 2.16683 8.33301V4.33301H12.8335V8.33301ZM12.8335 2.99967H2.16683V2.33301C2.16683 2.1562 2.23707 1.98663 2.36209 1.8616C2.48712 1.73658 2.65669 1.66634 2.8335 1.66634H12.1668C12.3436 1.66634 12.5132 1.73658 12.6382 1.8616C12.7633 1.98663 12.8335 2.1562 12.8335 2.33301V2.99967Z" fill="#343435"/>
</svg>
