<svg width="15" height="14" viewBox="0 0 15 14" fill="none" xmlns="http://www.w3.org/2000/svg">
<path d="M13.5 9.66667H4.16668C3.98987 9.66667 3.8203 9.59643 3.69527 9.47141C3.57025 9.34638 3.50001 9.17681 3.50001 9C3.50001 8.82319 3.57025 8.65362 3.69527 8.5286C3.8203 8.40357 3.98987 8.33334 4.16668 8.33334H11.1267C11.5724 8.33336 12.0054 8.18446 12.3569 7.91029C12.7084 7.63611 12.9582 7.25237 13.0667 6.82L14.1667 2.49334C14.1916 2.39494 14.1938 2.29214 14.173 2.19278C14.1522 2.09342 14.109 2.00012 14.0467 1.92C13.9818 1.83782 13.8986 1.77207 13.8036 1.72806C13.7086 1.68404 13.6046 1.66301 13.5 1.66667H4.00668C3.86913 1.27764 3.61463 0.940668 3.27805 0.701962C2.94148 0.463255 2.53931 0.334496 2.12668 0.333336H1.50001C1.3232 0.333336 1.15363 0.403574 1.02861 0.528598C0.903581 0.653622 0.833344 0.823192 0.833344 1C0.833344 1.17681 0.903581 1.34638 1.02861 1.47141C1.15363 1.59643 1.3232 1.66667 1.50001 1.66667H2.12668C2.27897 1.66223 2.42818 1.71009 2.54948 1.80228C2.67078 1.89447 2.75684 2.02542 2.79334 2.17334L2.83334 2.49334L3.98668 7C3.45624 7.02387 2.95702 7.25748 2.59882 7.64943C2.24063 8.04138 2.05281 8.55957 2.07668 9.09C2.10055 9.62044 2.33415 10.1197 2.7261 10.4779C3.11805 10.8361 3.63624 11.0239 4.16668 11H4.28668C4.17703 11.3021 4.1418 11.6262 4.18396 11.9447C4.22613 12.2633 4.34444 12.5671 4.52889 12.8302C4.71334 13.0934 4.95849 13.3083 5.24358 13.4566C5.52867 13.6049 5.84531 13.6824 6.16668 13.6824C6.48805 13.6824 6.80468 13.6049 7.08978 13.4566C7.37487 13.3083 7.62002 13.0934 7.80446 12.8302C7.98891 12.5671 8.10723 12.2633 8.14939 11.9447C8.19155 11.6262 8.15632 11.3021 8.04668 11H9.62001C9.51037 11.3021 9.47513 11.6262 9.5173 11.9447C9.55946 12.2633 9.67777 12.5671 9.86222 12.8302C10.0467 13.0934 10.2918 13.3083 10.5769 13.4566C10.862 13.6049 11.1786 13.6824 11.5 13.6824C11.8214 13.6824 12.138 13.6049 12.4231 13.4566C12.7082 13.3083 12.9534 13.0934 13.1378 12.8302C13.3222 12.5671 13.4406 12.2633 13.4827 11.9447C13.5249 11.6262 13.4897 11.3021 13.38 11H13.5C13.6768 11 13.8464 10.9298 13.9714 10.8047C14.0964 10.6797 14.1667 10.5101 14.1667 10.3333C14.1667 10.1565 14.0964 9.98696 13.9714 9.86193C13.8464 9.73691 13.6768 9.66667 13.5 9.66667ZM12.6467 3L11.7733 6.49334C11.7368 6.64125 11.6508 6.77221 11.5295 6.86439C11.4082 6.95658 11.259 7.00444 11.1067 7H5.35334L4.35334 3H12.6467ZM6.16668 12.3333C6.03482 12.3333 5.90593 12.2942 5.7963 12.221C5.68666 12.1477 5.60122 12.0436 5.55076 11.9218C5.5003 11.8 5.4871 11.6659 5.51282 11.5366C5.53854 11.4073 5.60204 11.2885 5.69527 11.1953C5.78851 11.102 5.9073 11.0385 6.03662 11.0128C6.16594 10.9871 6.29998 11.0003 6.4218 11.0507C6.54362 11.1012 6.64774 11.1867 6.72099 11.2963C6.79424 11.4059 6.83334 11.5348 6.83334 11.6667C6.83334 11.8435 6.76311 12.0131 6.63808 12.1381C6.51306 12.2631 6.34349 12.3333 6.16668 12.3333ZM11.5 12.3333C11.3682 12.3333 11.2393 12.2942 11.1296 12.221C11.02 12.1477 10.9345 12.0436 10.8841 11.9218C10.8336 11.8 10.8204 11.6659 10.8462 11.5366C10.8719 11.4073 10.9354 11.2885 11.0286 11.1953C11.1218 11.102 11.2406 11.0385 11.3699 11.0128C11.4993 10.9871 11.6333 11.0003 11.7551 11.0507C11.8769 11.1012 11.9811 11.1867 12.0543 11.2963C12.1276 11.4059 12.1667 11.5348 12.1667 11.6667C12.1667 11.8435 12.0964 12.0131 11.9714 12.1381C11.8464 12.2631 11.6768 12.3333 11.5 12.3333Z" fill="white"/>
</svg>
