<svg width="9" height="14" viewBox="0 0 9 14" fill="none" xmlns="http://www.w3.org/2000/svg">
<path d="M5.83333 6.33301H5.16667V3.66634H6.5C6.67681 3.66634 6.84638 3.73658 6.9714 3.8616C7.09643 3.98663 7.16667 4.1562 7.16667 4.33301C7.16667 4.50982 7.2369 4.67939 7.36193 4.80441C7.48695 4.92944 7.65652 4.99967 7.83333 4.99967C8.01014 4.99967 8.17971 4.92944 8.30474 4.80441C8.42976 4.67939 8.5 4.50982 8.5 4.33301C8.5 3.80257 8.28929 3.29387 7.91421 2.91879C7.53914 2.54372 7.03043 2.33301 6.5 2.33301H5.16667V0.999674C5.16667 0.822863 5.09643 0.653294 4.9714 0.52827C4.84638 0.403246 4.67681 0.333008 4.5 0.333008C4.32319 0.333008 4.15362 0.403246 4.0286 0.52827C3.90357 0.653294 3.83333 0.822863 3.83333 0.999674V2.33301H3.16667C2.45942 2.33301 1.78115 2.61396 1.28105 3.11406C0.780951 3.61415 0.5 4.29243 0.5 4.99967C0.5 5.70692 0.780951 6.3852 1.28105 6.88529C1.78115 7.38539 2.45942 7.66634 3.16667 7.66634H3.83333V10.333H2.5C2.32319 10.333 2.15362 10.2628 2.0286 10.1377C1.90357 10.0127 1.83333 9.84315 1.83333 9.66634C1.83333 9.48953 1.7631 9.31996 1.63807 9.19494C1.51305 9.06991 1.34348 8.99967 1.16667 8.99967C0.989856 8.99967 0.820287 9.06991 0.695262 9.19494C0.570238 9.31996 0.5 9.48953 0.5 9.66634C0.5 10.1968 0.710714 10.7055 1.08579 11.0806C1.46086 11.4556 1.96957 11.6663 2.5 11.6663H3.83333V12.9997C3.83333 13.1765 3.90357 13.3461 4.0286 13.4711C4.15362 13.5961 4.32319 13.6663 4.5 13.6663C4.67681 13.6663 4.84638 13.5961 4.9714 13.4711C5.09643 13.3461 5.16667 13.1765 5.16667 12.9997V11.6663H5.83333C6.54058 11.6663 7.21885 11.3854 7.71895 10.8853C8.21905 10.3852 8.5 9.70692 8.5 8.99967C8.5 8.29243 8.21905 7.61415 7.71895 7.11406C7.21885 6.61396 6.54058 6.33301 5.83333 6.33301ZM3.83333 6.33301H3.16667C2.81304 6.33301 2.47391 6.19253 2.22386 5.94248C1.97381 5.69243 1.83333 5.3533 1.83333 4.99967C1.83333 4.64605 1.97381 4.30691 2.22386 4.05687C2.47391 3.80682 2.81304 3.66634 3.16667 3.66634H3.83333V6.33301ZM5.83333 10.333H5.16667V7.66634H5.83333C6.18696 7.66634 6.52609 7.80682 6.77614 8.05687C7.02619 8.30691 7.16667 8.64605 7.16667 8.99967C7.16667 9.3533 7.02619 9.69244 6.77614 9.94248C6.52609 10.1925 6.18696 10.333 5.83333 10.333Z" fill="#7C7C7C"/>
</svg>
