<svg width="32" height="32" viewBox="0 0 32 32" fill="none" xmlns="http://www.w3.org/2000/svg">
<g clip-path="url(#clip0_332_11027)">
<g clip-path="url(#clip1_332_11027)">
<path d="M19.4402 25.2297C19.4402 21.9222 19.3816 18.6146 19.4475 15.3071C19.5061 12.2287 21.8972 9.92632 25.0427 9.78958C25.3356 9.7785 25.6212 9.74524 25.9069 9.68241C28.4298 9.29438 30.2497 7.96027 31.3372 5.62467C31.4288 5.42511 31.4288 5.15533 31.6961 5.06663C32.3369 7.2655 31.9671 9.30177 30.6342 11.1274C29.2976 12.9604 27.4521 13.888 25.1928 13.9693C24.1712 14.0062 23.6 14.5791 23.6 15.6064C23.6 18.7144 23.6256 21.8224 23.5926 24.9304C23.5633 27.7242 22.3183 29.8492 19.8796 31.1907C15.8041 33.4339 10.5532 30.81 9.83546 26.2127C9.75856 25.7286 9.72926 25.2482 9.72926 24.7641C9.72926 18.9324 9.72194 13.0971 9.73293 7.2655C9.73293 6.38226 9.50224 5.61728 8.87974 4.98533C8.79186 3.9284 8.86509 2.86777 8.84312 1.80714C8.83946 1.55584 8.85411 1.30454 8.8358 1.05693C8.81383 0.691072 8.70398 0.609769 8.35245 0.716941C7.68235 0.923893 7.12942 1.34149 6.59115 1.77018C6.53256 1.81453 6.48496 1.86996 6.43003 1.9217C5.08617 3.11537 4.43804 4.66382 4.17806 6.41183C4.17073 6.47095 4.17806 6.53008 4.20369 6.58182C4.11581 12.6943 4.18904 18.8068 4.16341 24.9193C4.15975 26.076 3.56288 26.8668 2.51562 27.096C1.25598 27.3694 0.0402846 26.4234 0.0109906 25.1225C-0.00731812 24.3723 0.0109906 23.6184 0.0109906 22.8682C0.0109906 17.5799 0.0109906 12.2915 0.0109906 7.00312C0.00732886 3.44058 2.6804 0.439773 6.19202 0.0443458C9.90137 -0.373254 13.2702 2.28017 13.8084 6.02748C13.8597 6.37856 13.878 6.72964 13.878 7.08442C13.878 12.8163 13.8927 18.5444 13.867 24.2762C13.8634 25.3332 14.0098 26.2866 14.7349 27.0886C14.8557 28.0568 14.7642 29.0251 14.7898 29.9933C14.7971 30.289 14.7825 30.5809 14.7935 30.8765C14.8081 31.3311 14.9473 31.4235 15.3793 31.2572C16.0714 30.9874 16.6463 30.5329 17.2029 30.0561C18.3563 28.977 19.0155 27.6318 19.323 26.0945C19.378 25.8099 19.5025 25.5327 19.4402 25.2297V25.2297Z" fill="#01C482"/>
<path d="M26.0863 4.35709C25.5919 4.21296 25.0866 4.1797 24.5703 4.1834C21.9375 4.19079 19.3047 4.19079 16.6683 4.1834C15.5917 4.1834 14.7092 3.39994 14.5921 2.35409C14.4749 1.31563 15.1194 0.369565 16.1337 0.0813099C16.3094 0.0332674 16.4815 0.0295718 16.6536 0.0295718C19.5354 0.0295718 22.4172 0.0110939 25.3027 0.036963C26.6465 0.0480497 27.8879 0.450868 28.9754 1.27129C28.9351 1.47454 28.7667 1.58171 28.6385 1.71475C27.7927 2.60169 26.8809 3.41842 26.0863 4.35709Z" fill="#02C481"/>
<path d="M26.0863 4.35709C26.1009 4.20557 26.1632 4.06884 26.2694 3.96536C27.1702 3.06364 28.0746 2.16931 28.9791 1.27129C29.737 1.74062 30.3412 2.36887 30.8099 3.12647C29.8066 4.0208 28.8985 5.01491 27.9464 5.96097C27.8842 6.0238 27.8366 6.09771 27.7524 6.13467C27.4301 5.32164 26.8772 4.72296 26.0863 4.35709V4.35709Z" fill="#03AE73"/>
<path d="M6.3275 1.88474C6.93169 1.2454 7.64939 0.787153 8.49159 0.539549C8.70763 0.476724 8.95663 0.487811 8.96029 0.809326C8.96762 2.15082 8.96029 3.48862 8.96029 4.83011C8.96029 4.88185 8.90903 4.92989 8.8834 4.98163C8.14373 4.34599 7.30885 4.04665 6.33482 4.2573C6.26891 3.46645 6.24328 2.67559 6.33482 1.88843L6.3275 1.88474Z" fill="#01A96F"/>
<path d="M17.3054 30.0894C16.7086 30.7028 16.0128 31.1685 15.2072 31.4494C14.9399 31.5417 14.6799 31.5159 14.6763 31.1611C14.6653 29.8418 14.6763 28.5225 14.6763 27.2031C14.6763 27.1662 14.7129 27.1255 14.7349 27.0886C15.3903 27.691 16.1886 27.8351 17.0418 27.8092C17.2175 28.0088 17.1589 28.2527 17.1699 28.4818C17.2029 29.0177 17.0821 29.5683 17.3054 30.0894V30.0894Z" fill="#01A970"/>
<path d="M27.7524 6.13466C27.7524 5.96836 27.8769 5.87597 27.9794 5.77249C28.785 4.95947 29.5942 4.14644 30.3998 3.33341C30.517 3.21515 30.6268 3.10059 30.8099 3.12646C31.1505 3.61797 31.4471 4.13166 31.6009 4.71556C31.3848 4.80795 31.2091 4.95947 31.0443 5.12946C30.1105 6.07184 29.1805 7.0179 28.2357 7.94919C28.0416 8.14136 27.8659 8.41483 27.518 8.34462C27.8842 7.63876 27.9245 6.89965 27.7487 6.13836L27.7524 6.13466Z" fill="#029562"/>
<path d="M27.5217 8.34092C27.7744 8.24853 27.9721 8.07854 28.1588 7.89006C29.1622 6.87748 30.1655 5.86858 31.1688 4.85969C31.286 4.74143 31.3885 4.55296 31.6009 4.71187C31.6485 4.82274 31.7217 4.92621 31.6961 5.05925C31.2896 6.13836 30.7184 7.11399 29.8835 7.91224C28.8546 8.89526 27.6279 9.49025 26.2364 9.74155C26.1229 9.76003 26.0021 9.7785 25.9069 9.67872C26.6026 9.42373 27.1445 8.98395 27.5217 8.34092V8.34092Z" fill="#028155"/>
<path d="M17.3054 30.0894C17.0418 30.0635 17.0381 29.875 17.0381 29.6755C17.0381 29.0509 17.0381 28.4301 17.0381 27.8055C17.7705 27.6466 18.3966 27.314 18.8653 26.7079C19.2059 26.2682 19.345 25.7582 19.4402 25.226C19.5757 25.9319 19.3413 26.5934 19.129 27.2364C18.7701 28.3377 18.1842 29.3133 17.3017 30.0857L17.3054 30.0894Z" fill="#019260"/>
<path d="M6.32749 1.88475C6.45931 2.6756 6.48129 3.46646 6.32749 4.25362C5.15207 4.5973 4.44535 5.36968 4.20002 6.57813C3.99862 6.21597 4.15608 5.84641 4.23663 5.51011C4.57352 4.0984 5.19967 2.8419 6.32749 1.88475Z" fill="#008E5E"/>
</g>
</g>
<defs>
<clipPath id="clip0_332_11027">
<rect width="32" height="32" fill="white"/>
</clipPath>
<clipPath id="clip1_332_11027">
<rect width="32" height="32" fill="white"/>
</clipPath>
</defs>
</svg>
