<svg width="39" height="38" viewBox="0 0 39 38" fill="none" xmlns="http://www.w3.org/2000/svg">
<rect x="0.5" width="38" height="38" rx="1" fill="white"/>
<path fill-rule="evenodd" clip-rule="evenodd" d="M27.708 19.1942C27.708 18.5879 27.6536 18.0049 27.5525 17.4453H19.5V20.7526H24.1015C23.9032 21.8214 23.3009 22.7269 22.3953 23.3332V25.4784H25.1585C26.7753 23.9899 27.708 21.798 27.708 19.1942Z" fill="#4285F4"/>
<path fill-rule="evenodd" clip-rule="evenodd" d="M19.5002 27.5495C21.8087 27.5495 23.7441 26.7839 25.1588 25.4781L22.3956 23.3328C21.6299 23.8458 20.6506 24.149 19.5002 24.149C17.2733 24.149 15.3884 22.6449 14.7161 20.624H11.8596V22.8393C13.2665 25.6335 16.1579 27.5495 19.5002 27.5495Z" fill="#34A853"/>
<path fill-rule="evenodd" clip-rule="evenodd" d="M14.7161 20.6244C14.5451 20.1114 14.4479 19.5634 14.4479 18.9999C14.4479 18.4364 14.5451 17.8884 14.7161 17.3754V15.1602H11.8596C11.2805 16.3144 10.9502 17.6202 10.9502 18.9999C10.9502 20.3795 11.2805 21.6854 11.8596 22.8396L14.7161 20.6244Z" fill="#FBBC05"/>
<path fill-rule="evenodd" clip-rule="evenodd" d="M19.5002 13.8498C20.7555 13.8498 21.8826 14.2812 22.7686 15.1284L25.2209 12.6761C23.7402 11.2964 21.8048 10.4492 19.5002 10.4492C16.1579 10.4492 13.2665 12.3652 11.8596 15.1595L14.7161 17.3747C15.3884 15.3538 17.2733 13.8498 19.5002 13.8498Z" fill="#EA4335"/>
</svg>
