<svg width="32" height="32" viewBox="0 0 32 32" fill="none" xmlns="http://www.w3.org/2000/svg">
<path d="M22.5 6H8.5C7.70435 6 6.94129 6.31607 6.37868 6.87868C5.81607 7.44129 5.5 8.20435 5.5 9V19C5.5 19.7956 5.81607 20.5587 6.37868 21.1213C6.94129 21.6839 7.70435 22 8.5 22H20.09L23.79 25.71C23.8834 25.8027 23.9943 25.876 24.1161 25.9258C24.2379 25.9755 24.3684 26.0008 24.5 26C24.6312 26.0034 24.7613 25.976 24.88 25.92C25.0626 25.845 25.2189 25.7176 25.3293 25.5539C25.4396 25.3901 25.499 25.1974 25.5 25V9C25.5 8.20435 25.1839 7.44129 24.6213 6.87868C24.0587 6.31607 23.2956 6 22.5 6ZM23.5 22.59L21.21 20.29C21.1166 20.1973 21.0057 20.124 20.8839 20.0742C20.7621 20.0245 20.6316 19.9992 20.5 20H8.5C8.23478 20 7.98043 19.8946 7.79289 19.7071C7.60536 19.5196 7.5 19.2652 7.5 19V9C7.5 8.73478 7.60536 8.48043 7.79289 8.29289C7.98043 8.10536 8.23478 8 8.5 8H22.5C22.7652 8 23.0196 8.10536 23.2071 8.29289C23.3946 8.48043 23.5 8.73478 23.5 9V22.59ZM15.5 16C15.3022 16 15.1089 16.0586 14.9444 16.1685C14.78 16.2784 14.6518 16.4346 14.5761 16.6173C14.5004 16.8 14.4806 17.0011 14.5192 17.1951C14.5578 17.3891 14.653 17.5673 14.7929 17.7071C14.9327 17.847 15.1109 17.9422 15.3049 17.9808C15.4989 18.0194 15.7 17.9996 15.8827 17.9239C16.0654 17.8482 16.2216 17.72 16.3315 17.5556C16.4414 17.3911 16.5 17.1978 16.5 17C16.5 16.7348 16.3946 16.4804 16.2071 16.2929C16.0196 16.1054 15.7652 16 15.5 16ZM15.5 10C15.2348 10 14.9804 10.1054 14.7929 10.2929C14.6054 10.4804 14.5 10.7348 14.5 11V14C14.5 14.2652 14.6054 14.5196 14.7929 14.7071C14.9804 14.8946 15.2348 15 15.5 15C15.7652 15 16.0196 14.8946 16.2071 14.7071C16.3946 14.5196 16.5 14.2652 16.5 14V11C16.5 10.7348 16.3946 10.4804 16.2071 10.2929C16.0196 10.1054 15.7652 10 15.5 10Z" fill="#BEBEBE"/>
</svg>
