<svg width="20" height="32" viewBox="0 0 20 32" fill="none" xmlns="http://www.w3.org/2000/svg">
<path fill-rule="evenodd" clip-rule="evenodd" d="M2.26219 13.098L5.7731 12.0828C5.7731 12.0828 5.73534 11.8457 5.60978 11.7289C5.48423 11.6122 5.25762 11.5404 5.25762 11.5404L0.377868 9.74609C0.377868 9.74609 0.222712 9.6934 0.109918 9.75694C-0.00287639 9.82049 0.000185889 9.9853 0.000185889 9.9853V12.2823C0.000185889 12.2823 -0.0120633 12.5023 0.302842 12.9952C0.617747 13.4881 1.3629 13.3625 1.3629 13.3625L2.26219 13.098Z" fill="#ED1651"/>
<path fill-rule="evenodd" clip-rule="evenodd" d="M16.238 7.55615L19.5039 5.70402C19.5039 5.70402 19.5529 5.38422 19.4273 5.26746C19.3018 5.1507 19.1517 5.11505 19.1517 5.11505L5.04735 0.0205092C5.04735 0.0205092 4.89219 -0.0321876 4.7794 0.0313586C4.66661 0.0949047 4.67018 0.259711 4.67018 0.259711V2.23997C4.67018 2.23997 4.66814 2.69875 4.98304 3.19162C5.29795 3.68449 5.80833 3.8121 5.80833 3.8121L16.238 7.55615Z" fill="#ED1651"/>
<path fill-rule="evenodd" clip-rule="evenodd" d="M16.238 13.3207L19.5039 11.608C19.5039 11.608 19.5733 11.1746 19.4477 11.0578C19.3217 10.9411 19.1517 10.8796 19.1517 10.8796L0.377367 3.97681C0.377367 3.97681 0.222211 3.92411 0.109417 3.98766C-0.00337688 4.0512 0.000195785 4.21601 0.000195785 4.21601V6.19627C0.000195785 6.19627 -0.00184574 6.65505 0.313059 7.14792C0.627964 7.64079 1.13835 7.76839 1.13835 7.76839L16.238 13.3202V13.3207Z" fill="#ED1651"/>
<path fill-rule="evenodd" clip-rule="evenodd" d="M19.1512 5.11499C19.1512 5.11499 19.3421 5.14444 19.5034 5.30356C19.6646 5.46269 19.6667 5.65746 19.6667 5.65746V8.27938C19.6667 8.27938 19.659 8.63741 19.5136 8.95979C19.3686 9.28217 19.1558 9.35812 19.1558 9.35812L18.7133 9.52086L4.61964 14.7032C4.61964 14.7032 4.55175 14.7244 4.46346 14.7244C4.37516 14.7244 4.30728 14.7032 4.30728 14.7032L0.380412 13.2592C0.380412 13.2592 0.282929 13.2365 0.144616 13.0169C-0.0110499 12.771 0.000178473 12.2828 0.000178473 12.2828C0.000178473 12.2828 0.0246768 12.5328 0.164521 12.6522C0.304365 12.7715 0.676943 12.6408 0.676943 12.6408L18.7143 6.00877C18.7143 6.00877 19.4304 5.71325 19.4304 5.41257C19.4304 5.20488 19.1512 5.11602 19.1512 5.11602V5.11499Z" fill="#2A0088"/>
<path fill-rule="evenodd" clip-rule="evenodd" d="M19.1512 10.8799C19.1512 10.8799 19.3421 10.9093 19.5034 11.0685C19.6646 11.2276 19.6667 11.4224 19.6667 11.4224V14.0443C19.6667 14.0443 19.659 14.4023 19.5136 14.7247C19.3686 15.0471 19.1558 15.123 19.1558 15.123L18.7133 15.2857L4.61963 20.4681V16.955L18.7143 11.7726C18.7143 11.7726 19.4304 11.4771 19.4304 11.1764C19.4304 10.9687 19.1512 10.8799 19.1512 10.8799Z" fill="#2A0088"/>
<path fill-rule="evenodd" clip-rule="evenodd" d="M12.1544 20.1089C12.2891 20.2453 12.2891 20.5459 12.2891 20.5459V22.5066C12.2891 22.5066 12.2815 22.8646 12.136 23.187C11.9906 23.5094 11.7782 23.5853 11.7782 23.5853L11.3357 23.7481L4.61862 26.2181V22.705L11.3357 20.2349C11.3357 20.2349 12.0191 19.9725 12.1539 20.1089H12.1544Z" fill="#2A0088"/>
<path fill-rule="evenodd" clip-rule="evenodd" d="M7.82126 27.4409C7.956 27.5773 7.956 27.878 7.956 27.878V29.8386C7.956 29.8386 7.94835 30.1966 7.80289 30.519C7.65743 30.8414 7.44511 30.9173 7.44511 30.9173L7.00261 31.0801L4.61862 32.0002V28.4871L7.00261 27.567C7.00261 27.567 7.68601 27.3045 7.82075 27.4409H7.82126Z" fill="#2A0088"/>
</svg>
