<svg width="17" height="20" viewBox="0 0 17 20" fill="none" xmlns="http://www.w3.org/2000/svg">
<path d="M13.5 7V5C13.5 3.67392 12.9732 2.40215 12.0355 1.46447C11.0979 0.526784 9.82608 0 8.5 0C7.17392 0 5.90215 0.526784 4.96447 1.46447C4.02678 2.40215 3.5 3.67392 3.5 5V7C2.70435 7 1.94129 7.31607 1.37868 7.87868C0.816071 8.44129 0.5 9.20435 0.5 10V17C0.5 17.7956 0.816071 18.5587 1.37868 19.1213C1.94129 19.6839 2.70435 20 3.5 20H13.5C14.2956 20 15.0587 19.6839 15.6213 19.1213C16.1839 18.5587 16.5 17.7956 16.5 17V10C16.5 9.20435 16.1839 8.44129 15.6213 7.87868C15.0587 7.31607 14.2956 7 13.5 7ZM5.5 5C5.5 4.20435 5.81607 3.44129 6.37868 2.87868C6.94129 2.31607 7.70435 2 8.5 2C9.29565 2 10.0587 2.31607 10.6213 2.87868C11.1839 3.44129 11.5 4.20435 11.5 5V7H5.5V5ZM14.5 17C14.5 17.2652 14.3946 17.5196 14.2071 17.7071C14.0196 17.8946 13.7652 18 13.5 18H3.5C3.23478 18 2.98043 17.8946 2.79289 17.7071C2.60536 17.5196 2.5 17.2652 2.5 17V10C2.5 9.73478 2.60536 9.48043 2.79289 9.29289C2.98043 9.10536 3.23478 9 3.5 9H13.5C13.7652 9 14.0196 9.10536 14.2071 9.29289C14.3946 9.48043 14.5 9.73478 14.5 10V17Z" fill="#7C7C7C"/>
</svg>
