<svg width="11" height="15" viewBox="0 0 11 15" fill="none" xmlns="http://www.w3.org/2000/svg">
<path d="M8.83329 5.50016V4.16683C8.83329 3.28277 8.4821 2.43493 7.85698 1.80981C7.23186 1.18469 6.38401 0.833496 5.49996 0.833496C4.6159 0.833496 3.76806 1.18469 3.14294 1.80981C2.51782 2.43493 2.16663 3.28277 2.16663 4.16683V5.50016C1.63619 5.50016 1.12749 5.71088 0.752412 6.08595C0.37734 6.46102 0.166626 6.96973 0.166626 7.50016V12.1668C0.166626 12.6973 0.37734 13.206 0.752412 13.581C1.12749 13.9561 1.63619 14.1668 2.16663 14.1668H8.83329C9.36372 14.1668 9.87243 13.9561 10.2475 13.581C10.6226 13.206 10.8333 12.6973 10.8333 12.1668V7.50016C10.8333 6.96973 10.6226 6.46102 10.2475 6.08595C9.87243 5.71088 9.36372 5.50016 8.83329 5.50016ZM3.49996 4.16683C3.49996 3.6364 3.71067 3.12769 4.08575 2.75262C4.46082 2.37754 4.96953 2.16683 5.49996 2.16683C6.03039 2.16683 6.5391 2.37754 6.91417 2.75262C7.28925 3.12769 7.49996 3.6364 7.49996 4.16683V5.50016H3.49996V4.16683ZM9.49996 12.1668C9.49996 12.3436 9.42972 12.5132 9.3047 12.6382C9.17967 12.7633 9.0101 12.8335 8.83329 12.8335H2.16663C1.98981 12.8335 1.82025 12.7633 1.69522 12.6382C1.5702 12.5132 1.49996 12.3436 1.49996 12.1668V7.50016C1.49996 7.32335 1.5702 7.15378 1.69522 7.02876C1.82025 6.90373 1.98981 6.8335 2.16663 6.8335H8.83329C9.0101 6.8335 9.17967 6.90373 9.3047 7.02876C9.42972 7.15378 9.49996 7.32335 9.49996 7.50016V12.1668Z" fill="#131418"/>
</svg>
