<svg width="17" height="16" viewBox="0 0 17 16" fill="none" xmlns="http://www.w3.org/2000/svg">
<path d="M8.89325 8.66665L7.35992 10.1933C7.29743 10.2553 7.24784 10.329 7.21399 10.4103C7.18015 10.4915 7.16272 10.5786 7.16272 10.6667C7.16272 10.7547 7.18015 10.8418 7.21399 10.923C7.24784 11.0043 7.29743 11.078 7.35992 11.14C7.42189 11.2025 7.49563 11.2521 7.57687 11.2859C7.65811 11.3198 7.74524 11.3372 7.83325 11.3372C7.92126 11.3372 8.0084 11.3198 8.08964 11.2859C8.17088 11.2521 8.24461 11.2025 8.30659 11.14L10.9733 8.47332C11.0339 8.40992 11.0815 8.33515 11.1133 8.25332C11.1799 8.09101 11.1799 7.90896 11.1133 7.74665C11.0815 7.66482 11.0339 7.59005 10.9733 7.52665L8.30659 4.85999C8.24443 4.79783 8.17063 4.74852 8.08942 4.71488C8.0082 4.68124 7.92116 4.66392 7.83325 4.66392C7.74535 4.66392 7.6583 4.68124 7.57709 4.71488C7.49587 4.74852 7.42208 4.79783 7.35992 4.85999C7.29776 4.92214 7.24845 4.99594 7.21481 5.07715C7.18117 5.15837 7.16386 5.24541 7.16386 5.33332C7.16386 5.42122 7.18117 5.50827 7.21481 5.58948C7.24845 5.6707 7.29776 5.74449 7.35992 5.80665L8.89325 7.33332H2.49992C2.32311 7.33332 2.15354 7.40356 2.02851 7.52858C1.90349 7.65361 1.83325 7.82317 1.83325 7.99999C1.83325 8.1768 1.90349 8.34637 2.02851 8.47139C2.15354 8.59641 2.32311 8.66665 2.49992 8.66665H8.89325ZM8.49992 1.33332C7.25398 1.32776 6.03142 1.67146 4.9709 2.32545C3.91038 2.97943 3.05435 3.91752 2.49992 5.03332C2.42035 5.19245 2.40726 5.37667 2.46352 5.54545C2.51978 5.71423 2.64079 5.85375 2.79992 5.93332C2.95905 6.01288 3.14327 6.02598 3.31205 5.96971C3.48083 5.91345 3.62035 5.79245 3.69992 5.63332C4.12138 4.7822 4.76247 4.05906 5.55695 3.53864C6.35143 3.01822 7.27047 2.7194 8.21909 2.67305C9.16771 2.6267 10.1115 2.8345 10.9529 3.27499C11.7944 3.71548 12.5029 4.37267 13.0053 5.17865C13.5078 5.98463 13.7858 6.91015 13.8109 7.85957C13.8359 8.809 13.6069 9.74788 13.1476 10.5792C12.6883 11.4105 12.0153 12.1041 11.1983 12.5883C10.3812 13.0724 9.44967 13.3297 8.49992 13.3333C7.50584 13.3376 6.53069 13.0616 5.68638 12.5368C4.84207 12.0121 4.16282 11.2599 3.72659 10.3667C3.64702 10.2075 3.5075 10.0865 3.33872 10.0303C3.16993 9.974 2.98572 9.98709 2.82659 10.0667C2.66746 10.1462 2.54645 10.2857 2.49019 10.4545C2.43393 10.6233 2.44702 10.8075 2.52659 10.9667C3.05514 12.0303 3.85827 12.9335 4.8529 13.5827C5.84753 14.2319 6.99755 14.6036 8.184 14.6593C9.37045 14.715 10.5502 14.4528 11.6013 13.8997C12.6525 13.3465 13.5367 12.5226 14.1626 11.5132C14.7886 10.5038 15.1334 9.34541 15.1616 8.15799C15.1897 6.97056 14.9001 5.79718 14.3227 4.75921C13.7454 3.72123 12.9011 2.85636 11.8774 2.25406C10.8537 1.65175 9.68768 1.33388 8.49992 1.33332V1.33332Z" fill="#131418"/>
</svg>
