<svg width="17" height="16" viewBox="0 0 17 16" fill="none" xmlns="http://www.w3.org/2000/svg">
<path d="M13.1667 4.33341H11.1667V3.66675C11.1667 3.13631 10.956 2.62761 10.5809 2.25253C10.2058 1.87746 9.6971 1.66675 9.16667 1.66675H7.83333C7.3029 1.66675 6.79419 1.87746 6.41912 2.25253C6.04405 2.62761 5.83333 3.13631 5.83333 3.66675V4.33341H3.83333C3.3029 4.33341 2.79419 4.54413 2.41912 4.9192C2.04405 5.29427 1.83333 5.80298 1.83333 6.33341V12.3334C1.83333 12.8638 2.04405 13.3726 2.41912 13.7476C2.79419 14.1227 3.3029 14.3334 3.83333 14.3334H13.1667C13.6971 14.3334 14.2058 14.1227 14.5809 13.7476C14.956 13.3726 15.1667 12.8638 15.1667 12.3334V6.33341C15.1667 5.80298 14.956 5.29427 14.5809 4.9192C14.2058 4.54413 13.6971 4.33341 13.1667 4.33341ZM7.16667 3.66675C7.16667 3.48994 7.2369 3.32037 7.36193 3.19534C7.48695 3.07032 7.65652 3.00008 7.83333 3.00008H9.16667C9.34348 3.00008 9.51305 3.07032 9.63807 3.19534C9.76309 3.32037 9.83333 3.48994 9.83333 3.66675V4.33341H7.16667V3.66675ZM13.8333 12.3334C13.8333 12.5102 13.7631 12.6798 13.6381 12.8048C13.513 12.9298 13.3435 13.0001 13.1667 13.0001H3.83333C3.65652 13.0001 3.48695 12.9298 3.36193 12.8048C3.2369 12.6798 3.16667 12.5102 3.16667 12.3334V8.66675C4.86417 9.34018 6.67379 9.68627 8.5 9.68675C10.3261 9.68562 12.1356 9.33956 13.8333 8.66675V12.3334ZM13.8333 7.20675C12.1523 7.94526 10.3361 8.3266 8.5 8.3266C6.66386 8.3266 4.84773 7.94526 3.16667 7.20675V6.33341C3.16667 6.1566 3.2369 5.98703 3.36193 5.86201C3.48695 5.73699 3.65652 5.66675 3.83333 5.66675H13.1667C13.3435 5.66675 13.513 5.73699 13.6381 5.86201C13.7631 5.98703 13.8333 6.1566 13.8333 6.33341V7.20675Z" fill="#D8D8D8"/>
</svg>
