<svg width="17" height="16" viewBox="0 0 17 16" fill="none" xmlns="http://www.w3.org/2000/svg">
<path d="M14.6666 8C14.6662 7.87689 14.6318 7.75629 14.5671 7.65156C14.5024 7.54683 14.4099 7.46207 14.3 7.40667L10.22 5.36667V2.7C10.22 2.15542 10.0036 1.63315 9.61854 1.24807C9.23347 0.863 8.7112 0.646667 8.16662 0.646667C7.62204 0.646667 7.09977 0.863 6.71469 1.24807C6.32962 1.63315 6.11329 2.15542 6.11329 2.7V5.36667L2.03329 7.40667C1.92334 7.46207 1.83089 7.54683 1.76617 7.65156C1.70145 7.75629 1.66699 7.87689 1.66662 8V10.22C1.66571 10.3286 1.69136 10.4358 1.74132 10.5322C1.79128 10.6287 1.86404 10.7114 1.95329 10.7733C2.04202 10.8341 2.14414 10.8726 2.25095 10.8853C2.35775 10.8981 2.46605 10.8848 2.56662 10.8467L6.11329 9.51333V12L4.89995 12.4C4.76754 12.4447 4.65253 12.5299 4.57118 12.6436C4.48983 12.7572 4.44626 12.8936 4.44662 13.0333V14.6667C4.44699 14.7549 4.46485 14.8421 4.49918 14.9234C4.53351 15.0046 4.58363 15.0783 4.64662 15.14C4.77079 15.2632 4.93839 15.3326 5.11329 15.3333H11.2266C11.4034 15.3333 11.573 15.2631 11.698 15.1381C11.823 15.013 11.8933 14.8435 11.8933 14.6667V13C11.8936 12.8602 11.8501 12.7239 11.7687 12.6102C11.6874 12.4966 11.5724 12.4114 11.44 12.3667L10.22 12V9.52L13.7666 10.8533C13.8672 10.8915 13.9755 10.9048 14.0823 10.892C14.1891 10.8792 14.2912 10.8408 14.38 10.78C14.4692 10.7181 14.542 10.6353 14.5919 10.5389C14.6419 10.4425 14.6675 10.3353 14.6666 10.2267V8ZM9.79329 7.93333C9.6918 7.89402 9.58224 7.88016 9.47417 7.89294C9.3661 7.90572 9.26279 7.94477 9.17329 8.00667C9.08497 8.06793 9.01279 8.14964 8.96287 8.24482C8.91296 8.34001 8.8868 8.44585 8.88662 8.55333V12.4467C8.88672 12.5873 8.93127 12.7242 9.01388 12.838C9.0965 12.9517 9.21296 13.0364 9.34662 13.08L10.5533 13.48V14H5.77329V13.48L6.97995 13.08C7.11361 13.0364 7.23007 12.9517 7.31269 12.838C7.39531 12.7242 7.43985 12.5873 7.43995 12.4467V8.55333C7.43977 8.44585 7.41361 8.34001 7.3637 8.24482C7.31379 8.14964 7.2416 8.06793 7.15329 8.00667C7.06378 7.94477 6.96047 7.90572 6.8524 7.89294C6.74433 7.88016 6.63477 7.89402 6.53329 7.93333L2.99329 9.26667V8.41333L7.06662 6.37333C7.17781 6.31886 7.27163 6.2345 7.33757 6.1297C7.40351 6.0249 7.43896 5.90381 7.43995 5.78V2.72C7.43995 2.52904 7.51581 2.34591 7.65084 2.21088C7.78586 2.07586 7.969 2 8.15995 2C8.35091 2 8.53404 2.07586 8.66907 2.21088C8.8041 2.34591 8.87995 2.52904 8.87995 2.72V5.78C8.88094 5.90381 8.9164 6.0249 8.98234 6.1297C9.04828 6.2345 9.1421 6.31886 9.25329 6.37333L13.3266 8.41333V9.26L9.79329 7.93333Z" fill="#BEBEBE"/>
</svg>
