<svg width="137" height="136" viewBox="0 0 137 136" fill="none" xmlns="http://www.w3.org/2000/svg">
<path d="M65.2795 0H52.4046V6.43745H58.842V12.8749H71.7188V32.1921H84.5938V25.7527H78.1563V6.43745H65.2795V0Z" fill="black"/>
<path d="M136.1 0V45.0675H91.0326V0H136.1ZM97.4715 38.6286H129.661V6.4389H97.4715V38.6286Z" fill="black"/>
<path d="M45.9653 0V45.0675H0.900272V0H45.9653ZM7.33917 38.6286H39.5264V6.4389H7.33675V38.6286H7.33917Z" fill="black"/>
<path d="M123.225 12.875H103.909V32.1903H123.225V12.875Z" fill="black"/>
<path d="M33.0923 12.875H13.777V32.1903H33.0923V12.875Z" fill="black"/>
<path d="M65.2793 19.3152H58.8418V25.7526H65.2793V19.3152Z" fill="black"/>
<path d="M58.8429 25.7532H52.4054V51.5064H58.8429V38.6286H65.2803V45.0679H71.7197V32.193H58.8429V25.7532Z" fill="black"/>
<path d="M84.5939 38.6287H78.1564V45.068H71.719V51.5065H78.1564V64.3814H71.719V57.9439H65.2796V51.5065H58.8421V70.8207H71.719V77.2582H78.1564V70.8207H84.5939V57.9439H97.4717V51.5065H84.5939V38.6287Z" fill="black"/>
<path d="M123.225 51.5063H110.35V57.9457H123.225V51.5063Z" fill="black"/>
<path d="M52.4062 51.5063H39.5285V57.9438H45.9659V64.3813H52.4062V51.5063Z" fill="black"/>
<path d="M33.0923 51.5063H26.6529V57.9457H33.0923V51.5063Z" fill="black"/>
<path d="M136.1 57.9429H123.225V64.3803H116.785V70.8197H123.225V77.2572H129.663V64.3803H136.1V57.9429Z" fill="black"/>
<path d="M110.347 57.9429H97.4718V64.3803H103.909V70.8197H97.4718V77.2572H110.347V57.9429Z" fill="black"/>
<path d="M26.6534 57.9429H20.2131V64.3803H13.7756V83.6946H20.2131V77.2572H33.0928V83.6946H39.5283V70.8197H26.6534V57.9429Z" fill="black"/>
<path d="M97.4717 64.3794H91.0342V70.8188H97.4717V64.3794Z" fill="black"/>
<path d="M7.33887 64.3794H0.899485V70.8188H7.33887V64.3794Z" fill="black"/>
<path d="M91.0328 70.8206H84.5944V83.6955H97.4722V77.258H91.0328V70.8206Z" fill="black"/>
<path d="M58.8428 70.8206H52.4034V77.258H58.8428V70.8206Z" fill="black"/>
<path d="M136.1 77.2571H129.663V83.6965H136.1V77.2571Z" fill="black"/>
<path d="M123.225 77.2571H116.787V83.6965H123.225V77.2571Z" fill="black"/>
<path d="M71.7208 77.2571H58.844V83.6945H65.2814V96.5723H71.7208V109.447H78.1583V96.5723H84.5957V83.6945H78.1583V90.1329H71.7208V77.2571Z" fill="black"/>
<path d="M52.4062 77.2571H45.9669V83.6965H52.4062V77.2571Z" fill="black"/>
<path d="M7.33887 77.2571H0.899485V83.6965H7.33887V77.2571Z" fill="black"/>
<path d="M58.8428 83.6936H52.4034V96.5685H58.8428V83.6936Z" fill="black"/>
<path d="M26.6533 83.6936H20.2139V96.5685H26.6533V83.6936Z" fill="black"/>
<path d="M13.7754 83.6936H7.33794V90.1311H13.7754V83.6936Z" fill="black"/>
<path d="M39.5287 90.1326H33.0931V96.572H26.6538V109.447H7.34045V115.884H33.0936V128.76H39.5292V115.884H45.9666V122.325H52.407V128.76H45.9666V135.2H78.1587V128.76H58.8444V115.884H52.407V96.572H39.5292L39.5287 90.1326Z" fill="black"/>
<path d="M136.1 90.1326V135.2H91.0326V90.1326H136.1ZM97.4715 128.761H129.661V96.5739H97.4715V128.761Z" fill="black"/>
<path d="M65.2793 96.5715H58.8418V103.009H65.2793V96.5715Z" fill="black"/>
<path d="M20.2119 96.5715H7.33894V103.009H20.2119V96.5715Z" fill="black"/>
<path d="M123.225 103.008H103.909V122.323H123.225V103.008Z" fill="black"/>
<path d="M7.33887 103.008H0.899485V109.447H7.33887V103.008Z" fill="black"/>
<path d="M84.5938 109.447H78.1563V115.884H71.7188V122.325H84.5938V109.447Z" fill="black"/>
<path d="M71.7207 109.447H58.8458V115.884H71.7207V109.447Z" fill="black"/>
<path d="M20.2119 122.325H13.7745V128.762H20.2119V122.325Z" fill="black"/>
<path d="M7.33887 122.325H0.899485V128.762H7.33887V122.325Z" fill="black"/>
<path d="M33.0923 128.761H26.6529V135.201H33.0923V128.761Z" fill="black"/>
</svg>
