<svg width="24" height="24" viewBox="0 0 24 24" fill="none" xmlns="http://www.w3.org/2000/svg">
<path d="M17.5466 15.22L16.1666 13.8067C15.8698 13.5245 15.4953 13.3375 15.0914 13.2698C14.6875 13.2021 14.2726 13.2567 13.9 13.4267L13.3 12.8267C14.007 11.8819 14.3299 10.7045 14.2036 9.53122C14.0774 8.358 13.5114 7.27615 12.6196 6.50347C11.7277 5.73078 10.5763 5.32464 9.39706 5.36679C8.21782 5.40894 7.09832 5.89626 6.26393 6.73065C5.42955 7.56503 4.94223 8.68453 4.90008 9.86378C4.85792 11.043 5.26407 12.1945 6.03675 13.0863C6.80944 13.9781 7.89128 14.5441 9.06451 14.6704C10.2377 14.7966 11.4152 14.4737 12.36 13.7667L12.9533 14.36C12.7633 14.7331 12.6953 15.1564 12.7587 15.5702C12.8221 15.984 13.0137 16.3675 13.3066 16.6667L14.72 18.08C15.095 18.4545 15.6033 18.6649 16.1333 18.6649C16.6633 18.6649 17.1716 18.4545 17.5466 18.08C17.7371 17.8937 17.8885 17.6713 17.9918 17.4257C18.0951 17.1802 18.1484 16.9164 18.1484 16.65C18.1484 16.3836 18.0951 16.1198 17.9918 15.8743C17.8885 15.6287 17.7371 15.4063 17.5466 15.22ZM11.8933 12.3933C11.4268 12.8587 10.8328 13.1753 10.1864 13.3032C9.54007 13.4312 8.87028 13.3647 8.26169 13.1121C7.65309 12.8596 7.13299 12.4323 6.76709 11.8844C6.4012 11.3364 6.20591 10.6922 6.20591 10.0333C6.20591 9.37442 6.4012 8.73029 6.76709 8.18231C7.13299 7.63433 7.65309 7.20708 8.26169 6.95454C8.87028 6.702 9.54007 6.6355 10.1864 6.76343C10.8328 6.89137 11.4268 7.208 11.8933 7.67333C12.2037 7.98297 12.45 8.35081 12.618 8.75577C12.7861 9.16074 12.8726 9.59488 12.8726 10.0333C12.8726 10.4718 12.7861 10.9059 12.618 11.3109C12.45 11.7159 12.2037 12.0837 11.8933 12.3933ZM16.6066 17.1067C16.5446 17.1692 16.4709 17.2187 16.3897 17.2526C16.3084 17.2864 16.2213 17.3039 16.1333 17.3039C16.0453 17.3039 15.9581 17.2864 15.8769 17.2526C15.7957 17.2187 15.7219 17.1692 15.66 17.1067L14.2466 15.6933C14.1841 15.6314 14.1345 15.5576 14.1007 15.4764C14.0668 15.3951 14.0494 15.308 14.0494 15.22C14.0494 15.132 14.0668 15.0449 14.1007 14.9636C14.1345 14.8824 14.1841 14.8086 14.2466 14.7467C14.3086 14.6842 14.3823 14.6346 14.4636 14.6007C14.5448 14.5669 14.6319 14.5495 14.72 14.5495C14.808 14.5495 14.8951 14.5669 14.9763 14.6007C15.0576 14.6346 15.1313 14.6842 15.1933 14.7467L16.6066 16.16C16.6691 16.222 16.7187 16.2957 16.7525 16.3769C16.7864 16.4582 16.8038 16.5453 16.8038 16.6333C16.8038 16.7213 16.7864 16.8085 16.7525 16.8897C16.7187 16.971 16.6691 17.0447 16.6066 17.1067Z" fill="white"/>
</svg>
