<svg width="17" height="16" viewBox="0 0 17 16" fill="none" xmlns="http://www.w3.org/2000/svg">
<path d="M15.1667 6.44664C15.1246 6.3247 15.048 6.21759 14.9462 6.13831C14.8445 6.05903 14.7219 6.01097 14.5933 5.99997L10.8 5.44664L9.1 1.99997C9.04541 1.88726 8.96018 1.7922 8.85406 1.72569C8.74795 1.65918 8.62524 1.6239 8.5 1.6239C8.37477 1.6239 8.25206 1.65918 8.14595 1.72569C8.03983 1.7922 7.95459 1.88726 7.9 1.99997L6.20001 5.43997L2.40667 5.99997C2.28329 6.01751 2.16729 6.06928 2.07184 6.14941C1.97639 6.22954 1.90531 6.33482 1.86667 6.45331C1.8313 6.56909 1.82813 6.69232 1.85749 6.80977C1.88685 6.92722 1.94764 7.03446 2.03334 7.11997L4.78667 9.78664L4.12001 13.5733C4.09621 13.6983 4.10867 13.8275 4.15592 13.9456C4.20317 14.0637 4.28324 14.1659 4.38667 14.24C4.48748 14.312 4.60639 14.3546 4.73004 14.3628C4.85369 14.3711 4.97719 14.3447 5.08667 14.2866L8.5 12.5066L11.9 14.2933C11.9936 14.3461 12.0992 14.3737 12.2067 14.3733C12.3479 14.3738 12.4856 14.3295 12.6 14.2466C12.7034 14.1725 12.7835 14.0704 12.8308 13.9523C12.878 13.8341 12.8905 13.705 12.8667 13.58L12.2 9.79331L14.9533 7.12664C15.0496 7.04509 15.1207 6.93791 15.1585 6.81754C15.1963 6.69717 15.1991 6.56856 15.1667 6.44664ZM11.0667 9.11331C10.9885 9.18893 10.93 9.28254 10.8963 9.38596C10.8626 9.48938 10.8547 9.59947 10.8733 9.70664L11.3533 12.5L8.84667 11.1666C8.75022 11.1153 8.64262 11.0884 8.53334 11.0884C8.42406 11.0884 8.31646 11.1153 8.22 11.1666L5.71334 12.5L6.19334 9.70664C6.21196 9.59947 6.20408 9.48938 6.17038 9.38596C6.13668 9.28254 6.07819 9.18893 6.00001 9.11331L4.00001 7.11331L6.80667 6.70664C6.91467 6.69162 7.01734 6.65034 7.10567 6.58641C7.19401 6.52248 7.26531 6.43787 7.31334 6.33997L8.5 3.79997L9.75334 6.34664C9.80137 6.44453 9.87267 6.52915 9.96101 6.59308C10.0493 6.657 10.152 6.69829 10.26 6.71331L13.0667 7.11997L11.0667 9.11331Z" fill="#78D9BC"/>
</svg>
