<svg width="21" height="15" viewBox="0 0 21 15" fill="none" xmlns="http://www.w3.org/2000/svg">
<path d="M7.5 5.5C7.23478 5.5 6.98043 5.60536 6.79289 5.79289C6.60536 5.98043 6.5 6.23478 6.5 6.5V8.5C6.5 8.76522 6.60536 9.01957 6.79289 9.20711C6.98043 9.39464 7.23478 9.5 7.5 9.5C7.76522 9.5 8.01957 9.39464 8.20711 9.20711C8.39464 9.01957 8.5 8.76522 8.5 8.5V6.5C8.5 6.23478 8.39464 5.98043 8.20711 5.79289C8.01957 5.60536 7.76522 5.5 7.5 5.5ZM19.5 6.5C19.7652 6.5 20.0196 6.39464 20.2071 6.20711C20.3946 6.01957 20.5 5.76522 20.5 5.5V1.5C20.5 1.23478 20.3946 0.98043 20.2071 0.792893C20.0196 0.605357 19.7652 0.5 19.5 0.5H1.5C1.23478 0.5 0.98043 0.605357 0.792893 0.792893C0.605357 0.98043 0.5 1.23478 0.5 1.5V5.5C0.5 5.76522 0.605357 6.01957 0.792893 6.20711C0.98043 6.39464 1.23478 6.5 1.5 6.5C1.76522 6.5 2.01957 6.60536 2.20711 6.79289C2.39464 6.98043 2.5 7.23478 2.5 7.5C2.5 7.76522 2.39464 8.01957 2.20711 8.20711C2.01957 8.39464 1.76522 8.5 1.5 8.5C1.23478 8.5 0.98043 8.60536 0.792893 8.79289C0.605357 8.98043 0.5 9.23478 0.5 9.5V13.5C0.5 13.7652 0.605357 14.0196 0.792893 14.2071C0.98043 14.3946 1.23478 14.5 1.5 14.5H19.5C19.7652 14.5 20.0196 14.3946 20.2071 14.2071C20.3946 14.0196 20.5 13.7652 20.5 13.5V9.5C20.5 9.23478 20.3946 8.98043 20.2071 8.79289C20.0196 8.60536 19.7652 8.5 19.5 8.5C19.2348 8.5 18.9804 8.39464 18.7929 8.20711C18.6054 8.01957 18.5 7.76522 18.5 7.5C18.5 7.23478 18.6054 6.98043 18.7929 6.79289C18.9804 6.60536 19.2348 6.5 19.5 6.5ZM18.5 4.68C17.9208 4.8902 17.4205 5.27363 17.0668 5.77816C16.7132 6.2827 16.5235 6.88388 16.5235 7.5C16.5235 8.11612 16.7132 8.7173 17.0668 9.22184C17.4205 9.72637 17.9208 10.1098 18.5 10.32V12.5H8.5C8.5 12.2348 8.39464 11.9804 8.20711 11.7929C8.01957 11.6054 7.76522 11.5 7.5 11.5C7.23478 11.5 6.98043 11.6054 6.79289 11.7929C6.60536 11.9804 6.5 12.2348 6.5 12.5H2.5V10.32C3.07915 10.1098 3.57954 9.72637 3.93316 9.22184C4.28678 8.7173 4.47648 8.11612 4.47648 7.5C4.47648 6.88388 4.28678 6.2827 3.93316 5.77816C3.57954 5.27363 3.07915 4.8902 2.5 4.68V2.5H6.5C6.5 2.76522 6.60536 3.01957 6.79289 3.20711C6.98043 3.39464 7.23478 3.5 7.5 3.5C7.76522 3.5 8.01957 3.39464 8.20711 3.20711C8.39464 3.01957 8.5 2.76522 8.5 2.5H18.5V4.68Z" fill="#131418"/>
</svg>
