<svg width="17" height="16" viewBox="0 0 17 16" fill="none" xmlns="http://www.w3.org/2000/svg">
<path d="M7.16667 11.9999C7.34348 11.9999 7.51305 11.9297 7.63807 11.8047C7.7631 11.6796 7.83333 11.5101 7.83333 11.3333V7.33325C7.83333 7.15644 7.7631 6.98687 7.63807 6.86185C7.51305 6.73682 7.34348 6.66659 7.16667 6.66659C6.98986 6.66659 6.82029 6.73682 6.69526 6.86185C6.57024 6.98687 6.5 7.15644 6.5 7.33325V11.3333C6.5 11.5101 6.57024 11.6796 6.69526 11.8047C6.82029 11.9297 6.98986 11.9999 7.16667 11.9999ZM13.8333 3.99992H11.1667V3.33325C11.1667 2.80282 10.956 2.29411 10.5809 1.91904C10.2058 1.54397 9.6971 1.33325 9.16667 1.33325H7.83333C7.3029 1.33325 6.79419 1.54397 6.41912 1.91904C6.04405 2.29411 5.83333 2.80282 5.83333 3.33325V3.99992H3.16667C2.98986 3.99992 2.82029 4.07016 2.69526 4.19518C2.57024 4.32021 2.5 4.48977 2.5 4.66659C2.5 4.8434 2.57024 5.01297 2.69526 5.13799C2.82029 5.26301 2.98986 5.33325 3.16667 5.33325H3.83333V12.6666C3.83333 13.197 4.04405 13.7057 4.41912 14.0808C4.79419 14.4559 5.3029 14.6666 5.83333 14.6666H11.1667C11.6971 14.6666 12.2058 14.4559 12.5809 14.0808C12.956 13.7057 13.1667 13.197 13.1667 12.6666V5.33325H13.8333C14.0101 5.33325 14.1797 5.26301 14.3047 5.13799C14.4298 5.01297 14.5 4.8434 14.5 4.66659C14.5 4.48977 14.4298 4.32021 14.3047 4.19518C14.1797 4.07016 14.0101 3.99992 13.8333 3.99992ZM7.16667 3.33325C7.16667 3.15644 7.2369 2.98687 7.36193 2.86185C7.48695 2.73682 7.65652 2.66659 7.83333 2.66659H9.16667C9.34348 2.66659 9.51305 2.73682 9.63807 2.86185C9.7631 2.98687 9.83333 3.15644 9.83333 3.33325V3.99992H7.16667V3.33325ZM11.8333 12.6666C11.8333 12.8434 11.7631 13.013 11.6381 13.138C11.513 13.263 11.3435 13.3333 11.1667 13.3333H5.83333C5.65652 13.3333 5.48695 13.263 5.36193 13.138C5.2369 13.013 5.16667 12.8434 5.16667 12.6666V5.33325H11.8333V12.6666ZM9.83333 11.9999C10.0101 11.9999 10.1797 11.9297 10.3047 11.8047C10.4298 11.6796 10.5 11.5101 10.5 11.3333V7.33325C10.5 7.15644 10.4298 6.98687 10.3047 6.86185C10.1797 6.73682 10.0101 6.66659 9.83333 6.66659C9.65652 6.66659 9.48695 6.73682 9.36193 6.86185C9.2369 6.98687 9.16667 7.15644 9.16667 7.33325V11.3333C9.16667 11.5101 9.2369 11.6796 9.36193 11.8047C9.48695 11.9297 9.65652 11.9999 9.83333 11.9999Z" fill="#D76363"/>
</svg>
