<svg width="39" height="39" viewBox="0 0 39 39" fill="none" xmlns="http://www.w3.org/2000/svg">
<path d="M19.5 39C30.2696 39 39 30.2696 39 19.5C39 8.73045 30.2696 0 19.5 0C8.73045 0 0 8.73045 0 19.5C0 30.2696 8.73045 39 19.5 39Z" fill="#34E0A1"/>
<path d="M31.6314 15.5342L34 12.9013H28.7457C26.114 11.0692 22.9374 10 19.4977 10C16.0672 10 12.8952 11.0692 10.2681 12.9013H5L7.36857 15.5342C5.91419 16.886 5.00462 18.8359 5.00462 20.9978C5.00462 25.0813 8.25044 28.3877 12.2488 28.3877C14.1511 28.3877 15.8825 27.6388 17.1753 26.4189L19.4977 29L21.8201 26.4236C23.1129 27.6482 24.8443 28.3924 26.7419 28.3924C30.7449 28.3924 33.9908 25.0813 33.9908 21.0025C33.9954 18.8359 33.0858 16.886 31.6314 15.5342ZM12.2535 25.9998C9.54323 25.9998 7.3501 23.7625 7.3501 20.9978C7.3501 18.233 9.54323 15.9958 12.2535 15.9958C14.9637 15.9958 17.1568 18.233 17.1568 20.9978C17.1568 23.7625 14.9637 25.9998 12.2535 25.9998ZM19.5023 20.8518C19.5023 17.5595 17.1568 14.7335 14.0588 13.5278C15.7348 12.8118 17.5724 12.4162 19.4977 12.4162C21.423 12.4162 23.2652 12.8118 24.9413 13.5278C21.8478 14.7382 19.5023 17.5642 19.5023 20.8518ZM26.7465 25.9998C24.0363 25.9998 21.8432 23.7625 21.8432 20.9978C21.8432 18.233 24.0363 15.9958 26.7465 15.9958C29.4568 15.9958 31.6499 18.233 31.6499 20.9978C31.6499 23.7625 29.4568 25.9998 26.7465 25.9998ZM26.7465 18.3743C25.3245 18.3743 24.1748 19.5471 24.1748 20.9978C24.1748 22.4484 25.3245 23.6212 26.7465 23.6212C28.1686 23.6212 29.3183 22.4484 29.3183 20.9978C29.3183 19.5518 28.1686 18.3743 26.7465 18.3743ZM14.8252 20.9978C14.8252 22.4484 13.6755 23.6212 12.2535 23.6212C10.8314 23.6212 9.68174 22.4484 9.68174 20.9978C9.68174 19.5471 10.8314 18.3743 12.2535 18.3743C13.6755 18.3743 14.8252 19.5518 14.8252 20.9978Z" fill="black"/>
</svg>
