<svg width="15" height="14" viewBox="0 0 15 14" fill="none" xmlns="http://www.w3.org/2000/svg">
<path d="M13.9733 9.85996C13.9114 9.79748 13.8376 9.74788 13.7564 9.71403C13.6752 9.68019 13.588 9.66276 13.5 9.66276C13.412 9.66276 13.3249 9.68019 13.2436 9.71403C13.1624 9.74788 13.0887 9.79748 13.0267 9.85996L11.5 11.3933V4.99996C11.5 4.46953 11.2893 3.96082 10.9142 3.58575C10.5392 3.21067 10.0304 2.99996 9.50001 2.99996H3.10668L4.64001 1.47329C4.70217 1.41114 4.75148 1.33734 4.78512 1.25613C4.81876 1.17491 4.83607 1.08787 4.83607 0.999961C4.83607 0.912055 4.81876 0.825009 4.78512 0.743795C4.75148 0.66258 4.70217 0.588786 4.64001 0.526627C4.57785 0.464468 4.50406 0.415161 4.42284 0.381521C4.34163 0.347881 4.25459 0.330566 4.16668 0.330566C4.07877 0.330566 3.99173 0.347881 3.91051 0.381521C3.8293 0.415161 3.7555 0.464468 3.69335 0.526627L1.02668 3.19329C0.965985 3.2567 0.918409 3.33146 0.886679 3.41329C0.82 3.5756 0.82 3.75765 0.886679 3.91996C0.918409 4.0018 0.965985 4.07656 1.02668 4.13996L3.69335 6.80663C3.75532 6.86911 3.82905 6.91871 3.91029 6.95255C3.99153 6.9864 4.07867 7.00383 4.16668 7.00383C4.25469 7.00383 4.34182 6.9864 4.42306 6.95255C4.5043 6.91871 4.57804 6.86911 4.64001 6.80663C4.7025 6.74465 4.75209 6.67092 4.78594 6.58968C4.81979 6.50844 4.83721 6.4213 4.83721 6.33329C4.83721 6.24529 4.81979 6.15815 4.78594 6.07691C4.75209 5.99567 4.7025 5.92194 4.64001 5.85996L3.10668 4.33329H9.50001C9.67682 4.33329 9.84639 4.40353 9.97142 4.52856C10.0964 4.65358 10.1667 4.82315 10.1667 4.99996V11.3933L8.64001 9.85996C8.57785 9.7978 8.50406 9.74849 8.42284 9.71485C8.34163 9.68121 8.25458 9.6639 8.16668 9.6639C8.07877 9.6639 7.99173 9.68121 7.91051 9.71485C7.8293 9.74849 7.7555 9.7978 7.69335 9.85996C7.63119 9.92212 7.58188 9.99591 7.54824 10.0771C7.5146 10.1583 7.49728 10.2454 7.49728 10.3333C7.49728 10.4212 7.5146 10.5082 7.54824 10.5895C7.58188 10.6707 7.63119 10.7445 7.69335 10.8066L10.36 13.4733C10.4234 13.534 10.4982 13.5816 10.58 13.6133C10.6598 13.6486 10.7461 13.6668 10.8333 13.6668C10.9206 13.6668 11.0069 13.6486 11.0867 13.6133C11.1685 13.5816 11.2433 13.534 11.3067 13.4733L13.9733 10.8066C14.0358 10.7447 14.0854 10.6709 14.1193 10.5897C14.1531 10.5084 14.1705 10.4213 14.1705 10.3333C14.1705 10.2453 14.1531 10.1581 14.1193 10.0769C14.0854 9.99567 14.0358 9.92194 13.9733 9.85996Z" fill="#BEBEBE"/>
</svg>
