<svg width="15" height="14" viewBox="0 0 15 14" fill="none" xmlns="http://www.w3.org/2000/svg">
<path d="M9.97333 7.47333C10.6269 6.9591 11.104 6.25394 11.3382 5.45596C11.5723 4.65797 11.5519 3.80684 11.2799 3.02097C11.0078 2.23511 10.4975 1.55359 9.82005 1.07123C9.14259 0.588876 8.33163 0.329666 7.5 0.329666C6.66836 0.329666 5.85741 0.588876 5.17995 1.07123C4.5025 1.55359 3.99223 2.23511 3.72014 3.02097C3.44805 3.80684 3.42767 4.65797 3.66184 5.45596C3.896 6.25394 4.37307 6.9591 5.02666 7.47333C3.90672 7.92202 2.92952 8.66623 2.19926 9.62661C1.469 10.587 1.01304 11.7275 0.879998 12.9267C0.870368 13.0142 0.878075 13.1028 0.902681 13.1874C0.927287 13.2719 0.968309 13.3508 1.02341 13.4195C1.13468 13.5583 1.29652 13.6472 1.47333 13.6667C1.65014 13.6861 1.82744 13.6345 1.96621 13.5233C2.10499 13.412 2.19388 13.2501 2.21333 13.0733C2.35972 11.7701 2.98112 10.5665 3.95881 9.69252C4.9365 8.81851 6.20193 8.33535 7.51333 8.33535C8.82473 8.33535 10.0902 8.81851 11.0679 9.69252C12.0455 10.5665 12.6669 11.7701 12.8133 13.0733C12.8315 13.2371 12.9096 13.3884 13.0327 13.498C13.1559 13.6076 13.3152 13.6677 13.48 13.6667H13.5533C13.7281 13.6466 13.8878 13.5582 13.9977 13.4208C14.1076 13.2835 14.1587 13.1082 14.14 12.9333C14.0063 11.7308 13.5479 10.5873 12.8139 9.62547C12.0799 8.66361 11.0979 7.91965 9.97333 7.47333ZM7.5 7C6.97258 7 6.45701 6.8436 6.01848 6.55058C5.57995 6.25757 5.23815 5.84109 5.03632 5.35382C4.83449 4.86655 4.78168 4.33037 4.88457 3.81309C4.98746 3.29581 5.24144 2.82065 5.61438 2.44771C5.98732 2.07477 6.46247 1.8208 6.97976 1.7179C7.49704 1.61501 8.03322 1.66782 8.52049 1.86965C9.00776 2.07148 9.42423 2.41328 9.71725 2.85181C10.0103 3.29034 10.1667 3.80591 10.1667 4.33333C10.1667 5.04057 9.88571 5.71885 9.38562 6.21895C8.88552 6.71905 8.20724 7 7.5 7Z" fill="white"/>
</svg>
