<svg width="15" height="12" viewBox="0 0 15 12" fill="none" xmlns="http://www.w3.org/2000/svg">
<path d="M7.7 6.14671C8.05572 5.8388 8.34103 5.45796 8.53658 5.03006C8.73213 4.60215 8.83334 4.13718 8.83333 3.66671C8.83333 2.78265 8.48214 1.93481 7.85702 1.30968C7.2319 0.684564 6.38405 0.333374 5.5 0.333374C4.61594 0.333374 3.7681 0.684564 3.14297 1.30968C2.51785 1.93481 2.16666 2.78265 2.16666 3.66671C2.16666 4.13718 2.26787 4.60215 2.46341 5.03006C2.65896 5.45796 2.94428 5.8388 3.3 6.14671C2.36676 6.5693 1.57497 7.25173 1.01932 8.1124C0.463661 8.97308 0.167645 9.97558 0.166664 11C0.166664 11.1769 0.236902 11.3464 0.361926 11.4714C0.48695 11.5965 0.65652 11.6667 0.833331 11.6667C1.01014 11.6667 1.17971 11.5965 1.30474 11.4714C1.42976 11.3464 1.5 11.1769 1.5 11C1.5 9.93917 1.92142 8.92176 2.67157 8.17161C3.42172 7.42147 4.43913 7.00004 5.5 7.00004C6.56086 7.00004 7.57828 7.42147 8.32842 8.17161C9.07857 8.92176 9.5 9.93917 9.5 11C9.5 11.1769 9.57024 11.3464 9.69526 11.4714C9.82028 11.5965 9.98985 11.6667 10.1667 11.6667C10.3435 11.6667 10.513 11.5965 10.6381 11.4714C10.7631 11.3464 10.8333 11.1769 10.8333 11C10.8323 9.97558 10.5363 8.97308 9.98068 8.1124C9.42502 7.25173 8.63324 6.5693 7.7 6.14671ZM5.5 5.66671C5.10443 5.66671 4.71776 5.54941 4.38886 5.32965C4.05996 5.10988 3.80361 4.79753 3.65224 4.43207C3.50086 4.06662 3.46126 3.66449 3.53843 3.27653C3.6156 2.88856 3.80608 2.5322 4.08578 2.25249C4.36549 1.97279 4.72186 1.78231 5.10982 1.70514C5.49778 1.62797 5.89991 1.66757 6.26536 1.81895C6.63082 1.97032 6.94317 2.22667 7.16294 2.55557C7.3827 2.88447 7.5 3.27114 7.5 3.66671C7.5 4.19714 7.28928 4.70585 6.91421 5.08092C6.53914 5.45599 6.03043 5.66671 5.5 5.66671ZM11.9933 5.88004C12.42 5.39959 12.6987 4.80608 12.7959 4.17093C12.8931 3.53579 12.8046 2.88609 12.5412 2.30004C12.2777 1.71399 11.8505 1.21657 11.311 0.867656C10.7714 0.518741 10.1425 0.333202 9.5 0.333374C9.32319 0.333374 9.15362 0.403612 9.02859 0.528636C8.90357 0.65366 8.83333 0.82323 8.83333 1.00004C8.83333 1.17685 8.90357 1.34642 9.02859 1.47145C9.15362 1.59647 9.32319 1.66671 9.5 1.66671C10.0304 1.66671 10.5391 1.87742 10.9142 2.25249C11.2893 2.62757 11.5 3.13627 11.5 3.66671C11.4991 4.01687 11.4062 4.36064 11.2307 4.66365C11.0552 4.96667 10.8032 5.21829 10.5 5.39337C10.4012 5.45039 10.3186 5.53182 10.2602 5.62987C10.2019 5.72792 10.1697 5.83931 10.1667 5.95337C10.1639 6.06655 10.19 6.17857 10.2424 6.27888C10.2949 6.37919 10.3721 6.46448 10.4667 6.52671L10.7267 6.70004L10.8133 6.74671C11.6169 7.12785 12.2949 7.7307 12.7673 8.48425C13.2398 9.2378 13.487 10.1107 13.48 11C13.48 11.1769 13.5502 11.3464 13.6753 11.4714C13.8003 11.5965 13.9699 11.6667 14.1467 11.6667C14.3235 11.6667 14.493 11.5965 14.6181 11.4714C14.7431 11.3464 14.8133 11.1769 14.8133 11C14.8188 9.97699 14.5625 8.96954 14.069 8.07341C13.5754 7.17729 12.8609 6.42225 11.9933 5.88004Z" fill="#131418"/>
</svg>
