<svg width="17" height="16" viewBox="0 0 17 16" fill="none" xmlns="http://www.w3.org/2000/svg">
<path d="M8.70033 8.14665C9.05604 7.83874 9.34136 7.4579 9.53691 7.02999C9.73246 6.60209 9.83366 6.13712 9.83366 5.66665C9.83366 4.78259 9.48247 3.93475 8.85735 3.30962C8.23223 2.6845 7.38438 2.33331 6.50033 2.33331C5.61627 2.33331 4.76842 2.6845 4.1433 3.30962C3.51818 3.93475 3.16699 4.78259 3.16699 5.66665C3.16699 6.13712 3.26819 6.60209 3.46374 7.02999C3.65929 7.4579 3.94461 7.83874 4.30033 8.14665C3.36709 8.56924 2.5753 9.25167 2.01965 10.1123C1.46399 10.973 1.16797 11.9755 1.16699 13C1.16699 13.1768 1.23723 13.3464 1.36225 13.4714C1.48728 13.5964 1.65685 13.6666 1.83366 13.6666C2.01047 13.6666 2.18004 13.5964 2.30506 13.4714C2.43009 13.3464 2.50033 13.1768 2.50033 13C2.50033 11.9391 2.92175 10.9217 3.6719 10.1716C4.42204 9.42141 5.43946 8.99998 6.50033 8.99998C7.56119 8.99998 8.57861 9.42141 9.32875 10.1716C10.0789 10.9217 10.5003 11.9391 10.5003 13C10.5003 13.1768 10.5706 13.3464 10.6956 13.4714C10.8206 13.5964 10.9902 13.6666 11.167 13.6666C11.3438 13.6666 11.5134 13.5964 11.6384 13.4714C11.7634 13.3464 11.8337 13.1768 11.8337 13C11.8327 11.9755 11.5367 10.973 10.981 10.1123C10.4253 9.25167 9.63357 8.56924 8.70033 8.14665V8.14665ZM6.50033 7.66665C6.10476 7.66665 5.71808 7.54935 5.38919 7.32959C5.06029 7.10982 4.80394 6.79747 4.65257 6.43201C4.50119 6.06656 4.46158 5.66443 4.53876 5.27647C4.61593 4.8885 4.80641 4.53214 5.08611 4.25243C5.36582 3.97273 5.72218 3.78225 6.11015 3.70508C6.49811 3.62791 6.90024 3.66751 7.26569 3.81889C7.63114 3.97026 7.9435 4.22661 8.16326 4.55551C8.38303 4.8844 8.50033 5.27108 8.50033 5.66665C8.50033 6.19708 8.28961 6.70579 7.91454 7.08086C7.53947 7.45593 7.03076 7.66665 6.50033 7.66665ZM12.9937 7.87998C13.4203 7.39953 13.699 6.80602 13.7962 6.17087C13.8934 5.53573 13.8049 4.88603 13.5415 4.29998C13.2781 3.71393 12.8509 3.21651 12.3113 2.86759C11.7718 2.51868 11.1429 2.33314 10.5003 2.33331C10.3235 2.33331 10.1539 2.40355 10.0289 2.52858C9.9039 2.6536 9.83366 2.82317 9.83366 2.99998C9.83366 3.17679 9.9039 3.34636 10.0289 3.47138C10.1539 3.59641 10.3235 3.66665 10.5003 3.66665C11.0308 3.66665 11.5395 3.87736 11.9145 4.25243C12.2896 4.62751 12.5003 5.13621 12.5003 5.66665C12.4994 6.01681 12.4065 6.36058 12.231 6.66359C12.0555 6.96661 11.8036 7.21823 11.5003 7.39331C11.4015 7.45033 11.3189 7.53176 11.2606 7.62981C11.2022 7.72786 11.17 7.83925 11.167 7.95331C11.1642 8.06649 11.1903 8.17851 11.2428 8.27882C11.2953 8.37913 11.3724 8.46441 11.467 8.52665L11.727 8.69998L11.8137 8.74665C12.6173 9.12779 13.2952 9.73064 13.7676 10.4842C14.2401 11.2377 14.4874 12.1106 14.4803 13C14.4803 13.1768 14.5506 13.3464 14.6756 13.4714C14.8006 13.5964 14.9702 13.6666 15.147 13.6666C15.3238 13.6666 15.4934 13.5964 15.6184 13.4714C15.7434 13.3464 15.8137 13.1768 15.8137 13C15.8191 11.9769 15.5629 10.9695 15.0693 10.0734C14.5757 9.17723 13.8612 8.42219 12.9937 7.87998V7.87998Z" fill="#BEBEBE"/>
</svg>
