<svg width="17" height="16" viewBox="0 0 17 16" fill="none" xmlns="http://www.w3.org/2000/svg">
<g clip-path="url(#clip0_513_31963)">
<path d="M8.36666 8.14668C8.72238 7.83877 9.00769 7.45793 9.20324 7.03003C9.39879 6.60212 9.5 6.13715 9.49999 5.66668C9.49999 4.78262 9.1488 3.93478 8.52368 3.30965C7.89856 2.68453 7.05071 2.33334 6.16666 2.33334C5.2826 2.33334 4.43476 2.68453 3.80964 3.30965C3.18451 3.93478 2.83332 4.78262 2.83332 5.66668C2.83332 6.13715 2.93453 6.60212 3.13007 7.03003C3.32562 7.45793 3.61094 7.83877 3.96666 8.14668C3.03342 8.56927 2.24163 9.2517 1.68598 10.1124C1.13032 10.973 0.834306 11.9755 0.833324 13C0.833324 13.1768 0.903562 13.3464 1.02859 13.4714C1.15361 13.5964 1.32318 13.6667 1.49999 13.6667C1.6768 13.6667 1.84637 13.5964 1.9714 13.4714C2.09642 13.3464 2.16666 13.1768 2.16666 13C2.16666 11.9391 2.58809 10.9217 3.33823 10.1716C4.08838 9.42144 5.10579 9.00001 6.16666 9.00001C7.22752 9.00001 8.24494 9.42144 8.99508 10.1716C9.74523 10.9217 10.1667 11.9391 10.1667 13C10.1667 13.1768 10.2369 13.3464 10.3619 13.4714C10.4869 13.5964 10.6565 13.6667 10.8333 13.6667C11.0101 13.6667 11.1797 13.5964 11.3047 13.4714C11.4298 13.3464 11.5 13.1768 11.5 13C11.499 11.9755 11.203 10.973 10.6473 10.1124C10.0917 9.2517 9.2999 8.56927 8.36666 8.14668ZM6.16666 7.66668C5.7711 7.66668 5.38442 7.54938 5.05552 7.32962C4.72662 7.10985 4.47027 6.7975 4.3189 6.43204C4.16752 6.06659 4.12792 5.66446 4.20509 5.2765C4.28226 4.88853 4.47274 4.53217 4.75244 4.25246C5.03215 3.97276 5.38852 3.78228 5.77648 3.70511C6.16444 3.62794 6.56657 3.66754 6.93202 3.81892C7.29748 3.97029 7.60983 4.22664 7.8296 4.55554C8.04936 4.88443 8.16666 5.27111 8.16666 5.66668C8.16666 6.19711 7.95594 6.70582 7.58087 7.08089C7.2058 7.45596 6.69709 7.66668 6.16666 7.66668ZM12.66 7.88001C13.0866 7.39956 13.3653 6.80605 13.4625 6.1709C13.5597 5.53576 13.4713 4.88606 13.2078 4.30001C12.9444 3.71396 12.5172 3.21654 11.9776 2.86763C11.4381 2.51871 10.8092 2.33317 10.1667 2.33334C9.98985 2.33334 9.82028 2.40358 9.69525 2.52861C9.57023 2.65363 9.49999 2.8232 9.49999 3.00001C9.49999 3.17682 9.57023 3.34639 9.69525 3.47141C9.82028 3.59644 9.98985 3.66668 10.1667 3.66668C10.6971 3.66668 11.2058 3.87739 11.5809 4.25246C11.9559 4.62754 12.1667 5.13624 12.1667 5.66668C12.1657 6.01684 12.0729 6.36061 11.8974 6.66362C11.7219 6.96664 11.4699 7.21826 11.1667 7.39334C11.0678 7.45036 10.9853 7.53179 10.9269 7.62984C10.8685 7.72789 10.8363 7.83928 10.8333 7.95334C10.8305 8.06652 10.8566 8.17854 10.9091 8.27885C10.9616 8.37916 11.0388 8.46445 11.1333 8.52668L11.3933 8.70001L11.48 8.74668C12.2836 9.12782 12.9615 9.73067 13.434 10.4842C13.9064 11.2378 14.1537 12.1106 14.1467 13C14.1467 13.1768 14.2169 13.3464 14.3419 13.4714C14.4669 13.5964 14.6365 13.6667 14.8133 13.6667C14.9901 13.6667 15.1597 13.5964 15.2847 13.4714C15.4098 13.3464 15.48 13.1768 15.48 13C15.4854 11.977 15.2292 10.9695 14.7356 10.0734C14.2421 9.17726 13.5276 8.42222 12.66 7.88001Z" fill="#BEBEBE"/>
</g>
<defs>
<clipPath id="clip0_513_31963">
<rect width="16" height="16" fill="white" transform="translate(0.166656)"/>
</clipPath>
</defs>
</svg>
