<svg width="15" height="11" viewBox="0 0 15 11" fill="none" xmlns="http://www.w3.org/2000/svg">
<path d="M4.16683 6.99992H6.16683C6.34364 6.99992 6.51321 6.92968 6.63823 6.80466C6.76326 6.67963 6.8335 6.51006 6.8335 6.33325C6.8335 6.15644 6.76326 5.98687 6.63823 5.86185C6.51321 5.73682 6.34364 5.66659 6.16683 5.66659H4.16683C3.99002 5.66659 3.82045 5.73682 3.69543 5.86185C3.5704 5.98687 3.50016 6.15644 3.50016 6.33325C3.50016 6.51006 3.5704 6.67963 3.69543 6.80466C3.82045 6.92968 3.99002 6.99992 4.16683 6.99992ZM12.1668 0.333252H2.8335C2.30306 0.333252 1.79436 0.543966 1.41928 0.919038C1.04421 1.29411 0.833496 1.80282 0.833496 2.33325V8.33325C0.833496 8.86369 1.04421 9.37239 1.41928 9.74747C1.79436 10.1225 2.30306 10.3333 2.8335 10.3333H12.1668C12.6973 10.3333 13.206 10.1225 13.581 9.74747C13.9561 9.37239 14.1668 8.86369 14.1668 8.33325V2.33325C14.1668 1.80282 13.9561 1.29411 13.581 0.919038C13.206 0.543966 12.6973 0.333252 12.1668 0.333252ZM12.8335 8.33325C12.8335 8.51006 12.7633 8.67963 12.6382 8.80466C12.5132 8.92968 12.3436 8.99992 12.1668 8.99992H2.8335C2.65669 8.99992 2.48712 8.92968 2.36209 8.80466C2.23707 8.67963 2.16683 8.51006 2.16683 8.33325V4.33325H12.8335V8.33325ZM12.8335 2.99992H2.16683V2.33325C2.16683 2.15644 2.23707 1.98687 2.36209 1.86185C2.48712 1.73682 2.65669 1.66659 2.8335 1.66659H12.1668C12.3436 1.66659 12.5132 1.73682 12.6382 1.86185C12.7633 1.98687 12.8335 2.15644 12.8335 2.33325V2.99992Z" fill="#343435"/>
</svg>
