<svg width="58" height="42" viewBox="0 0 58 42" fill="none" xmlns="http://www.w3.org/2000/svg">
<path d="M55.8398 1.83993C55.4679 1.46502 55.0255 1.16744 54.5381 0.964365C54.0507 0.76129 53.5279 0.656738 52.9998 0.656738C52.4718 0.656738 51.9489 0.76129 51.4615 0.964365C50.9741 1.16744 50.5317 1.46502 50.1598 1.83993L20.3598 31.6799L7.8398 19.1199C7.45371 18.747 6.99795 18.4537 6.49853 18.2569C5.99911 18.0601 5.46581 17.9636 4.92909 17.9729C4.39237 17.9821 3.86273 18.097 3.37041 18.311C2.8781 18.525 2.43275 18.8338 2.0598 19.2199C1.68684 19.606 1.39359 20.0618 1.19677 20.5612C0.999957 21.0606 0.903435 21.5939 0.912721 22.1306C0.922007 22.6674 1.03692 23.197 1.25089 23.6893C1.46487 24.1816 1.77371 24.627 2.1598 24.9999L17.5198 40.3599C17.8917 40.7348 18.3341 41.0324 18.8215 41.2355C19.3089 41.4386 19.8318 41.5431 20.3598 41.5431C20.8879 41.5431 21.4107 41.4386 21.8981 41.2355C22.3855 41.0324 22.828 40.7348 23.1998 40.3599L55.8398 7.71993C56.2458 7.34536 56.5699 6.89076 56.7915 6.38476C57.0131 5.87876 57.1275 5.33234 57.1275 4.77993C57.1275 4.22752 57.0131 3.6811 56.7915 3.17511C56.5699 2.66911 56.2458 2.2145 55.8398 1.83993V1.83993Z" fill="#78D9BC"/>
</svg>
