<svg width="256" height="256" viewBox="0 0 256 256" fill="none" xmlns="http://www.w3.org/2000/svg">
<g clip-path="url(#clip0_332_11016)">
<path d="M152.119 193.973C152.119 170.51 151.7 147.047 152.171 123.585C152.591 101.747 169.702 85.4148 192.212 84.4448C194.308 84.3662 196.352 84.1303 198.396 83.6846C216.451 80.932 229.474 71.4682 237.257 54.9C237.912 53.4843 237.912 51.5706 239.825 50.9414C244.411 66.5397 241.764 80.9844 232.226 93.9349C222.661 106.938 209.454 113.518 193.286 114.095C185.975 114.357 181.887 118.42 181.887 125.708C181.887 147.755 182.071 169.803 181.835 191.85C181.625 211.669 172.716 226.743 155.264 236.259C126.098 252.172 88.521 233.559 83.3849 200.947C82.8347 197.512 82.625 194.104 82.625 190.67C82.625 149.302 82.5726 107.908 82.6512 66.5397C82.6512 60.2742 81.0003 54.8476 76.5456 50.3647C75.9167 42.8671 76.4408 35.3432 76.2836 27.8194C76.2574 26.0367 76.3622 24.2541 76.2311 22.4976C76.0739 19.9023 75.2878 19.3256 72.7722 20.0858C67.9768 21.5539 64.0199 24.5162 60.1679 27.5572C59.7486 27.8718 59.4079 28.265 59.0149 28.6321C49.3979 37.0997 44.7597 48.084 42.8992 60.4839C42.8468 60.9033 42.8992 61.3228 43.0826 61.6898C42.4537 105.05 42.9778 148.411 42.7944 191.771C42.7682 199.977 38.4969 205.587 31.0024 207.212C21.9881 209.152 13.2883 202.441 13.0786 193.213C12.9476 187.891 13.0786 182.543 13.0786 177.222C13.0786 139.707 13.0786 102.193 13.0786 64.6784C13.0524 39.4066 32.1816 18.1196 57.3116 15.3146C83.8566 12.3522 107.965 31.175 111.817 57.7575C112.184 60.2479 112.315 62.7384 112.315 65.2551C112.315 105.915 112.419 146.549 112.236 187.21C112.21 194.707 113.258 201.471 118.446 207.16C119.311 214.028 118.656 220.897 118.839 227.765C118.892 229.862 118.787 231.933 118.866 234.031C118.97 237.255 119.966 237.91 123.058 236.731C128.011 234.817 132.125 231.592 136.108 228.211C144.363 220.556 149.079 211.013 151.28 200.108C151.674 198.089 152.564 196.123 152.119 193.973V193.973Z" fill="#01C482"/>
<path d="M199.68 45.9081C196.142 44.8857 192.526 44.6497 188.831 44.6759C169.99 44.7284 151.149 44.7284 132.282 44.6759C124.578 44.6759 118.263 39.1183 117.424 31.6993C116.586 24.3327 121.198 17.6215 128.456 15.5767C129.714 15.2359 130.946 15.2097 132.177 15.2097C152.8 15.2097 173.423 15.0786 194.072 15.2622C203.689 15.3408 212.572 18.1983 220.355 24.0181C220.067 25.46 218.862 26.2202 217.944 27.164C211.891 33.4557 205.366 39.2493 199.68 45.9081Z" fill="#02C481"/>
<path d="M199.68 45.9081C199.785 44.8332 200.23 43.8633 200.99 43.1292C207.436 36.7326 213.909 30.3885 220.381 24.0181C225.806 27.3475 230.129 31.8041 233.484 37.1783C226.304 43.5225 219.805 50.5744 212.992 57.2856C212.546 57.7313 212.206 58.2556 211.603 58.5177C209.297 52.7503 205.34 48.5034 199.68 45.9081V45.9081Z" fill="#03AE73"/>
<path d="M58.2812 28.3699C62.6049 23.8346 67.7409 20.5839 73.7679 18.8275C75.314 18.3818 77.0959 18.4605 77.1221 20.7412C77.1745 30.2574 77.1221 39.7474 77.1221 49.2637C77.1221 49.6307 76.7552 49.9715 76.5718 50.3385C71.2785 45.8294 65.3039 43.706 58.3336 45.2003C57.8619 39.5901 57.6784 33.98 58.3336 28.3961L58.2812 28.3699Z" fill="#01A96F"/>
<path d="M136.842 228.447C132.571 232.798 127.592 236.102 121.827 238.094C119.914 238.749 118.053 238.566 118.027 236.049C117.949 226.69 118.027 217.331 118.027 207.972C118.027 207.71 118.289 207.422 118.446 207.16C123.137 211.433 128.85 212.455 134.955 212.272C136.213 213.687 135.794 215.417 135.872 217.043C136.108 220.844 135.243 224.75 136.842 228.447V228.447Z" fill="#01A970"/>
<path d="M211.603 58.5177C211.603 57.338 212.494 56.6826 213.228 55.9486C218.993 50.1812 224.784 44.4138 230.549 38.6464C231.387 37.8075 232.173 36.9948 233.484 37.1783C235.921 40.665 238.043 44.3089 239.144 48.451C237.598 49.1064 236.34 50.1812 235.161 51.3871C228.479 58.0721 221.823 64.7832 215.062 71.3895C213.673 72.7527 212.415 74.6927 209.926 74.1946C212.546 69.1874 212.835 63.9443 211.577 58.5439L211.603 58.5177Z" fill="#029562"/>
<path d="M209.952 74.1684C211.76 73.513 213.175 72.3071 214.512 70.9701C221.692 63.787 228.872 56.6302 236.052 49.4734C236.89 48.6345 237.624 47.2975 239.144 48.4248C239.484 49.2112 240.008 49.9453 239.825 50.889C236.916 58.5439 232.828 65.4648 226.854 71.1274C219.49 78.1007 210.712 82.3214 200.754 84.1041C199.942 84.2351 199.077 84.3662 198.396 83.6584C203.375 81.8495 207.253 78.7299 209.952 74.1684V74.1684Z" fill="#028155"/>
<path d="M136.842 228.447C134.955 228.263 134.929 226.926 134.929 225.51C134.929 221.08 134.929 216.676 134.929 212.245C140.17 211.118 144.651 208.759 148.005 204.459C150.442 201.34 151.438 197.722 152.119 193.947C153.089 198.954 151.412 203.647 149.892 208.208C147.324 216.02 143.131 222.941 136.816 228.42L136.842 228.447Z" fill="#019260"/>
<path d="M58.2812 28.3699C59.2245 33.98 59.3817 39.5901 58.2812 45.174C49.8696 47.6121 44.8121 53.0911 43.0564 61.6636C41.6152 59.0945 42.742 56.4729 43.3185 54.0873C45.7293 44.073 50.2102 35.1597 58.2812 28.3699Z" fill="#008E5E"/>
</g>
<defs>
<clipPath id="clip0_332_11016">
<rect width="229" height="227" fill="white" transform="translate(13 15)"/>
</clipPath>
</defs>
</svg>
